<?xml version="1.0" encoding="UTF-8" standalone="no"?>
<!DOCTYPE svg PUBLIC "-//W3C//DTD SVG 1.1//EN" "http://www.w3.org/Graphics/SVG/1.1/DTD/svg11.dtd">
<svg xmlns="http://www.w3.org/2000/svg" version="1.1" viewBox="42 122 252 252">
<path fill="#ffffff" d="
  M 1174.00 0.00
  L 1174.00 585.00
  L 0.00 585.00
  L 0.00 0.00
  L 1174.00 0.00
  Z"
/>
<g>
<path fill="#091b44" d="
  M 242.02 311.49
  A 0.45 0.45 0.0 0 1 241.33 310.97
  Q 249.94 288.77 252.41 265.23
  Q 253.48 254.94 253.36 237.73
  Q 253.32 232.37 253.35 210.17
  A 0.47 0.47 0.0 0 0 253.01 209.72
  C 223.18 201.20 195.06 188.82 168.14 173.63
  A 0.47 0.47 0.0 0 0 167.68 173.63
  Q 122.39 199.08 71.10 211.91
  A 0.84 0.82 -7.2 0 0 70.47 212.71
  Q 70.31 234.51 70.68 254.74
  Q 70.80 260.97 72.61 272.72
  Q 78.29 309.62 101.52 338.48
  C 119.19 360.44 141.34 375.65 167.75 389.42
  A 1.08 1.06 -45.6 0 0 168.79 389.40
  L 182.65 381.40
  A 0.70 0.69 -32.0 0 1 183.57 381.61
  L 192.73 394.78
  A 0.54 0.54 0.0 0 1 192.56 395.55
  L 169.73 408.73
  A 2.90 2.88 -47.2 0 1 167.08 408.84
  C 140.14 396.08 115.41 380.07 95.41 358.10
  Q 69.39 329.51 59.49 293.78
  Q 55.82 280.55 53.96 264.92
  Q 52.81 255.23 52.89 235.55
  Q 52.96 216.48 52.89 199.17
  A 1.39 1.37 -6.5 0 1 53.98 197.82
  Q 114.50 184.97 167.33 153.69
  A 1.29 1.27 44.6 0 1 168.64 153.69
  C 200.61 172.59 233.81 187.08 269.84 195.93
  A 0.95 0.94 7.3 0 1 270.56 196.86
  Q 270.38 217.11 270.55 232.80
  Q 270.76 251.89 269.63 262.68
  Q 267.91 279.12 264.89 292.20
  C 264.34 294.56 264.40 295.25 262.32 296.70
  Q 249.76 305.49 242.02 311.49
  Z"
/>
<path fill="#091b44" d="
  M 220.17 247.57
  A 0.15 0.15 0.0 0 1 219.95 247.70
  L 213.45 244.09
  A 0.43 0.43 0.0 0 1 213.22 243.71
  L 213.22 233.37
  A 1.18 1.18 0.0 0 0 212.62 232.34
  L 166.85 206.91
  A 0.28 0.28 0.0 0 0 166.43 207.16
  L 166.43 365.49
  A 0.22 0.21 65.7 0 1 166.38 365.63
  Q 166.13 365.90 165.75 365.69
  Q 146.24 354.60 128.47 343.65
  A 1.37 1.36 -74.1 0 1 127.83 342.49
  L 127.83 221.71
  A 1.79 1.76 75.2 0 1 128.71 220.17
  L 166.31 198.46
  A 0.64 0.63 45.4 0 1 166.95 198.47
  Q 191.01 213.17 218.73 228.74
  C 220.50 229.73 220.07 230.71 220.10 232.34
  Q 220.21 239.48 220.17 247.57
  Z"
/>
<ellipse fill="#014dd0" cx="0.00" cy="0.00" transform="translate(779.82,215.48) rotate(-79.0)" rx="10.96" ry="10.72"/>
<path fill="#091b44" d="
  M 636.97 205.16
  A 0.44 0.43 -0.0 0 1 637.41 205.59
  L 637.41 309.48
  A 0.60 0.60 0.0 0 1 636.81 310.08
  L 618.91 310.08
  A 0.60 0.60 0.0 0 1 618.31 309.48
  L 618.31 301.19
  A 0.41 0.41 0.0 0 0 617.58 300.94
  Q 611.12 309.26 601.18 310.93
  Q 587.82 313.18 576.88 306.84
  C 564.42 299.63 559.07 285.92 559.29 271.49
  C 559.51 256.85 566.02 243.81 578.95 237.36
  C 591.53 231.08 608.56 232.85 617.86 244.32
  A 0.20 0.20 0.0 0 0 618.22 244.20
  L 618.22 205.78
  A 0.62 0.62 0.0 0 1 618.84 205.16
  L 636.97 205.16
  Z"
/>
<path fill="#091b44" d="
  M 330.76 272.62
  C 330.73 280.97 334.72 288.13 341.67 291.42
  C 351.22 295.95 361.97 293.10 367.52 283.88
  A 0.66 0.66 0.0 0 1 368.40 283.64
  L 383.84 292.22
  A 0.68 0.68 0.0 0 1 384.10 293.14
  C 376.32 306.83 361.55 313.02 346.20 311.38
  C 325.07 309.11 311.32 293.56 311.42 272.53
  C 311.52 251.49 325.41 236.07 346.56 234.00
  C 361.92 232.50 376.63 238.82 384.29 252.59
  A 0.68 0.68 0.0 0 1 384.02 253.50
  L 368.50 261.94
  A 0.66 0.66 0.0 0 1 367.62 261.69
  C 362.16 252.42 351.43 249.47 341.85 253.91
  C 334.86 257.14 330.80 264.26 330.76 272.62
  Z"
/>
<path fill="#091b44" d="
  M 429.73 233.75
  C 452.66 233.36 469.51 249.19 469.90 272.00
  C 470.29 294.80 453.98 311.20 431.05 311.59
  C 408.12 311.98 391.27 296.15 390.88 273.34
  C 390.49 250.54 406.80 234.14 429.73 233.75
  Z"
/>
<path fill="#091b44" d="
  M 499.35 244.13
  A 0.21 0.21 0.0 0 0 499.73 244.26
  C 505.94 235.49 517.19 232.30 527.42 234.37
  C 543.65 237.65 549.31 250.31 549.36 265.68
  Q 549.44 290.48 549.37 309.36
  A 0.71 0.71 0.0 0 1 548.66 310.07
  L 531.21 310.07
  A 0.73 0.73 0.0 0 1 530.48 309.35
  Q 530.33 287.50 530.46 269.04
  C 530.53 259.83 526.22 252.23 515.99 252.17
  Q 505.09 252.10 501.07 260.87
  Q 499.35 264.62 499.41 274.41
  Q 499.56 297.53 499.45 309.40
  A 0.68 0.68 0.0 0 1 498.77 310.08
  L 480.92 310.08
  A 0.73 0.72 0.0 0 1 480.19 309.36
  L 480.19 235.92
  A 0.50 0.49 -0.0 0 1 480.69 235.43
  L 498.93 235.43
  A 0.42 0.41 0.0 0 1 499.35 235.84
  L 499.35 244.13
  Z"
/>
<path fill="#091b44" d="
  M 726.76 270.03
  C 728.33 292.73 712.95 309.92 690.12 311.50
  C 667.30 313.09 649.68 298.20 648.10 275.50
  C 646.53 252.80 661.91 235.61 684.74 234.02
  C 707.56 232.43 725.18 247.33 726.76 270.03
  Z"
/>
<path fill="#014dd0" d="
  M 817.12 249.25
  C 821.79 243.18 827.53 239.80 835.09 239.18
  Q 842.59 238.57 848.04 240.23
  C 859.37 243.66 865.70 253.15 865.80 264.78
  Q 866.02 287.46 865.94 309.45
  A 0.57 0.56 -89.5 0 1 865.38 310.01
  L 850.77 310.01
  A 0.72 0.71 89.2 0 1 850.06 309.31
  Q 849.98 306.04 849.98 274.50
  C 849.98 267.86 849.63 260.62 843.86 256.68
  Q 839.03 253.38 831.63 254.09
  Q 820.92 255.10 817.65 266.30
  Q 816.80 269.19 816.82 277.00
  Q 816.87 304.48 816.83 309.29
  A 0.75 0.75 0.0 0 1 816.08 310.03
  L 801.42 310.03
  A 0.86 0.86 0.0 0 1 800.56 309.17
  L 800.56 240.99
  A 0.49 0.49 0.0 0 1 801.05 240.50
  L 816.36 240.50
  A 0.65 0.64 1.3 0 1 817.01 241.17
  L 816.63 249.07
  A 0.27 0.27 0.0 0 0 817.12 249.25
  Z"
/>
<path fill="#014dd0" d="
  M 930.02 252.96
  A 0.58 0.58 0.0 0 1 929.81 253.76
  L 917.90 260.64
  A 0.40 0.40 0.0 0 1 917.37 260.51
  Q 912.91 253.53 904.27 253.24
  C 899.96 253.10 893.49 253.77 892.48 259.11
  C 891.70 263.25 895.62 265.59 899.14 266.65
  C 911.14 270.24 931.63 271.30 931.31 290.34
  C 931.13 301.04 923.52 307.93 913.30 310.32
  C 899.15 313.63 882.12 310.54 874.46 296.65
  A 0.63 0.63 0.0 0 1 874.69 295.80
  L 886.24 289.13
  A 0.87 0.87 0.0 0 1 887.38 289.38
  C 890.39 293.65 893.03 296.34 898.38 297.37
  C 903.59 298.37 916.02 298.42 915.72 290.10
  Q 915.56 285.72 910.19 284.31
  C 897.74 281.04 883.67 279.09 878.66 269.64
  Q 874.81 262.39 876.99 254.89
  C 880.60 242.44 893.53 238.46 905.24 239.23
  C 915.89 239.94 924.67 243.88 930.02 252.96
  Z"
/>
<path fill="#014dd0" d="
  M 1120.33 296.56
  A 0.45 0.45 0.0 0 1 1120.48 297.21
  C 1111.86 309.66 1097.16 313.57 1082.79 310.66
  Q 1064.55 306.98 1058.31 289.96
  C 1054.48 279.50 1055.21 265.37 1060.93 255.50
  Q 1069.65 240.43 1086.94 239.31
  C 1113.43 237.59 1125.50 255.99 1123.34 280.70
  A 0.44 0.44 0.0 0 1 1122.90 281.11
  L 1073.06 281.11
  A 0.64 0.63 -3.9 0 0 1072.43 281.83
  C 1073.46 289.59 1078.22 295.01 1086.01 296.92
  Q 1098.82 300.05 1107.99 290.20
  A 0.58 0.57 35.4 0 1 1108.69 290.09
  L 1120.33 296.56
  Z"
/>
<path fill="#014dd0" d="
  M 1031.23 248.91
  A 0.46 0.46 0.0 0 0 1032.09 249.15
  C 1036.76 240.74 1046.69 238.16 1055.61 240.01
  A 0.53 0.53 0.0 0 1 1056.03 240.55
  L 1055.35 254.76
  A 0.60 0.60 0.0 0 1 1054.60 255.32
  Q 1050.80 254.41 1045.26 255.23
  C 1035.39 256.67 1031.41 264.30 1031.43 273.75
  Q 1031.51 301.15 1031.43 309.47
  A 0.56 0.56 0.0 0 1 1030.87 310.03
  L 1016.04 310.03
  A 0.72 0.72 0.0 0 1 1015.32 309.31
  L 1015.32 241.13
  A 0.64 0.63 -90.0 0 1 1015.95 240.49
  L 1030.86 240.49
  A 0.74 0.74 0.0 0 1 1031.60 241.26
  L 1031.23 248.91
  Z"
/>
<path fill="#091b44" d="
  M 220.22 259.60
  L 220.22 268.86
  A 0.50 0.50 0.0 0 1 219.55 269.33
  L 177.55 253.83
  A 0.50 0.50 0.0 0 1 177.22 253.36
  L 177.22 240.58
  A 0.50 0.50 0.0 0 1 177.93 240.12
  L 219.93 259.15
  A 0.50 0.50 0.0 0 1 220.22 259.60
  Z"
/>
<rect fill="#014dd0" x="771.36" y="240.41" width="16.48" height="69.58" rx="0.48"/>
<path fill="#014dd0" d="
  M 987.56 302.01
  A 0.31 0.30 -26.6 0 0 987.01 301.83
  C 979.82 311.40 967.26 313.53 956.28 309.96
  C 947.13 306.99 942.19 299.86 940.06 290.68
  Q 939.22 287.08 939.22 279.74
  Q 939.23 265.31 939.18 240.97
  A 0.47 0.47 0.0 0 1 939.65 240.50
  L 954.93 240.50
  A 0.64 0.64 0.0 0 1 955.57 241.14
  Q 955.56 258.16 955.52 274.82
  Q 955.51 281.94 955.84 284.05
  C 958.39 300.30 979.89 300.18 986.06 287.20
  Q 987.85 283.45 987.57 273.68
  Q 987.51 271.54 987.55 240.80
  A 0.29 0.29 0.0 0 1 987.84 240.51
  L 1002.94 240.51
  A 0.66 0.65 -90.0 0 1 1003.59 241.17
  L 1003.59 309.36
  A 0.70 0.70 0.0 0 1 1002.89 310.06
  L 988.26 310.06
  A 0.70 0.70 0.0 0 1 987.56 309.36
  L 987.56 302.01
  Z"
/>
<path fill="#091b44" d="
  M 220.18 283.42
  L 220.18 292.60
  A 0.69 0.69 0.0 0 1 219.35 293.27
  L 177.70 284.44
  A 0.69 0.69 0.0 0 1 177.15 283.76
  L 177.15 271.03
  A 0.69 0.69 0.0 0 1 178.04 270.36
  L 219.69 282.76
  A 0.69 0.69 0.0 0 1 220.18 283.42
  Z"
/>
<circle fill="#014dd0" cx="744.27" cy="299.67" r="11.51"/>
<path fill="#091b44" d="
  M 220.28 308.04
  L 220.28 317.31
  A 0.59 0.59 0.0 0 1 219.66 317.90
  L 177.71 315.91
  A 0.59 0.59 0.0 0 1 177.15 315.32
  L 177.15 301.81
  A 0.59 0.59 0.0 0 1 177.83 301.23
  L 219.78 307.46
  A 0.59 0.59 0.0 0 1 220.28 308.04
  Z"
/>
<path fill="#014dd0" d="
  M 274.63 305.94
  A 0.35 0.35 0.0 0 1 274.99 306.50
  C 252.68 333.53 229.26 360.98 206.05 387.53
  A 0.52 0.51 48.2 0 1 205.24 387.48
  L 182.46 354.71
  A 1.20 1.19 43.4 0 1 182.42 353.41
  C 185.03 349.18 189.83 352.83 193.40 355.22
  Q 199.09 359.04 205.67 364.50
  A 0.76 0.76 0.0 0 0 206.66 364.49
  C 235.13 339.55 254.38 322.60 273.72 306.46
  Q 274.20 306.06 274.63 305.94
  Z"
/>
<rect fill="#091b44" x="-12.93" y="-2.78" transform="translate(196.46,333.05) rotate(0.8)" width="25.86" height="5.56" rx="0.65"/>
<rect fill="#b6b7b5" x="313.94" y="341.05" width="807.96" height="1.84" rx="0.71"/>
<circle fill="#091b44" cx="772.22" cy="369.52" r="2.61"/>
<path fill="#091b44" d="
  M 360.8189 367.3719
  A 15.21 14.72 -89.1 0 1 375.2982 382.8112
  A 15.21 14.72 -89.1 0 1 360.3411 397.7881
  A 15.21 14.72 -89.1 0 1 345.8618 382.3488
  A 15.21 14.72 -89.1 0 1 360.8189 367.3719
  Z"
/>
<path fill="#091b44" d="
  M 405.60 381.75
  A 0.29 0.29 0.0 0 0 406.10 381.99
  Q 410.23 377.73 415.73 378.50
  C 425.38 379.87 426.86 392.23 418.65 396.57
  Q 415.44 398.27 411.07 397.49
  C 406.21 396.63 403.32 392.65 402.41 388.11
  C 400.65 379.25 403.30 366.66 414.74 367.54
  Q 419.78 367.93 422.50 372.12
  A 0.89 0.88 -31.6 0 1 422.20 373.37
  L 420.62 374.29
  A 1.10 1.09 59.0 0 1 419.15 373.92
  Q 417.74 371.70 415.01 371.30
  C 407.91 370.26 406.27 376.33 405.60 381.75
  Z"
/>
<path fill="#091b44" d="
  M 647.40 382.70
  C 647.45 388.73 651.03 393.92 657.51 393.98
  Q 663.18 394.04 665.94 389.47
  A 1.17 1.16 -62.1 0 1 667.42 389.01
  L 669.06 389.75
  A 0.88 0.88 0.0 0 1 669.45 391.01
  Q 666.37 396.12 661.69 397.12
  Q 648.83 399.87 643.93 387.75
  Q 643.31 386.23 643.28 382.74
  Q 643.25 379.25 643.84 377.72
  Q 648.53 365.52 661.44 368.04
  Q 666.13 368.96 669.30 374.01
  A 0.88 0.88 0.0 0 1 668.93 375.28
  L 667.31 376.05
  A 1.17 1.16 61.1 0 1 665.82 375.62
  Q 662.98 371.09 657.32 371.25
  C 650.83 371.43 647.35 376.68 647.40 382.70
  Z"
/>
<rect fill="#091b44" x="-1.92" y="-14.87" transform="translate(762.93,382.27) rotate(0.2)" width="3.84" height="29.74" rx="0.76"/>
<path fill="#014dd0" d="
  M 1102.93 395.53
  Q 1098.46 399.05 1093.50 396.86
  C 1088.28 394.56 1086.88 389.79 1087.43 384.30
  C 1087.97 378.94 1092.24 375.51 1097.52 375.59
  Q 1100.57 375.63 1102.73 377.64
  A 0.30 0.29 21.9 0 0 1103.23 377.43
  L 1103.23 368.02
  A 0.60 0.59 90.0 0 1 1103.82 367.42
  L 1108.77 367.42
  A 0.59 0.58 -90.0 0 1 1109.35 368.01
  L 1109.35 396.73
  A 0.50 0.50 0.0 0 1 1108.85 397.23
  L 1104.26 397.23
  A 0.55 0.55 0.0 0 1 1103.71 396.68
  L 1103.71 395.91
  A 0.48 0.48 0.0 0 0 1102.93 395.53
  Z"
/>
<path fill="#091b44" d="
  M 327.59 380.57
  Q 335.15 380.57 335.53 380.57
  A 0.51 0.50 -0.2 0 0 336.04 380.07
  L 336.04 368.34
  A 0.59 0.58 85.4 0 1 336.53 367.76
  Q 338.40 367.44 339.58 367.82
  A 0.57 0.56 -82.0 0 1 339.98 368.35
  Q 339.98 368.78 339.97 382.47
  Q 339.96 396.17 339.95 396.60
  A 0.57 0.56 82.1 0 1 339.56 397.13
  Q 338.38 397.51 336.51 397.18
  A 0.59 0.58 -85.3 0 1 336.02 396.60
  L 336.04 384.87
  A 0.51 0.50 0.3 0 0 335.53 384.37
  Q 335.14 384.37 327.59 384.36
  Q 320.03 384.36 319.65 384.36
  A 0.51 0.50 -0.2 0 0 319.14 384.86
  L 319.14 396.59
  A 0.59 0.58 85.4 0 1 318.65 397.17
  Q 316.78 397.49 315.60 397.11
  A 0.57 0.56 -82.0 0 1 315.20 396.58
  Q 315.20 396.15 315.21 382.46
  Q 315.22 368.76 315.22 368.33
  A 0.57 0.56 82.1 0 1 315.62 367.80
  Q 316.80 367.42 318.67 367.75
  A 0.59 0.58 -85.3 0 1 319.16 368.33
  L 319.14 380.06
  A 0.51 0.50 0.3 0 0 319.65 380.56
  Q 320.03 380.56 327.59 380.57
  Z"
/>
<rect fill="#091b44" x="441.27" y="367.70" width="4.02" height="29.52" rx="0.80"/>
<path fill="#014dd0" d="
  M 906.64 368.00
  Q 906.73 368.00 909.51 367.95
  A 1.18 1.17 78.8 0 1 910.62 368.70
  L 921.33 396.54
  A 0.52 0.52 0.0 0 1 920.85 397.25
  L 915.58 397.25
  A 1.05 1.04 79.3 0 1 914.61 396.58
  L 913.13 392.74
  A 1.21 1.20 -8.9 0 0 912.08 391.97
  Q 911.20 391.93 906.58 391.91
  Q 901.96 391.90 901.08 391.95
  A 1.21 1.20 9.2 0 0 900.03 392.71
  L 898.53 396.54
  A 1.05 1.04 -79.0 0 1 897.55 397.20
  L 892.28 397.18
  A 0.52 0.52 0.0 0 1 891.81 396.46
  L 902.66 368.68
  A 1.18 1.17 -78.5 0 1 903.77 367.94
  Q 906.55 368.00 906.64 368.00
  Z"
/>
<path fill="#014dd0" d="
  M 1046.96 375.79
  Q 1047.95 375.81 1048.60 375.98
  A 0.92 0.92 0.0 0 0 1049.75 375.09
  L 1049.75 370.82
  A 0.91 0.91 0.0 0 1 1050.66 369.91
  L 1054.79 369.91
  A 0.99 0.98 0.0 0 1 1055.78 370.89
  L 1055.78 375.19
  A 0.62 0.62 0.0 0 0 1056.40 375.81
  L 1059.82 375.81
  A 0.85 0.85 0.0 0 1 1060.67 376.66
  L 1060.67 380.41
  A 0.89 0.88 90.0 0 1 1059.79 381.30
  L 1056.43 381.30
  A 0.66 0.65 -89.6 0 0 1055.78 381.95
  Q 1055.70 387.14 1055.86 389.65
  Q 1056.01 391.90 1059.75 391.75
  A 0.92 0.92 0.0 0 1 1060.71 392.67
  L 1060.71 396.34
  A 0.96 0.96 0.0 0 1 1059.86 397.29
  C 1047.83 398.63 1049.72 390.09 1049.65 381.96
  A 0.64 0.64 0.0 0 0 1049.01 381.33
  L 1047.02 381.33
  A 0.63 0.62 -90.0 0 1 1046.40 380.70
  L 1046.40 376.34
  A 0.55 0.55 0.0 0 1 1046.96 375.79
  Z"
/>
<path fill="#014dd0" d="
  M 946.79 376.37
  A 0.55 0.55 0.0 0 1 947.35 375.82
  Q 948.34 375.84 948.99 376.01
  A 0.92 0.92 0.0 0 0 950.15 375.12
  L 950.15 370.85
  A 0.91 0.91 0.0 0 1 951.06 369.94
  L 955.19 369.94
  A 0.99 0.98 0.0 0 1 956.18 370.92
  L 956.17 375.22
  A 0.62 0.62 0.0 0 0 956.79 375.84
  L 960.21 375.84
  A 0.85 0.85 0.0 0 1 961.06 376.69
  L 961.06 380.44
  A 0.89 0.88 -90.0 0 1 960.18 381.33
  L 956.82 381.33
  A 0.66 0.65 -89.5 0 0 956.17 381.98
  Q 956.09 387.17 956.25 389.68
  Q 956.40 391.93 960.14 391.78
  A 0.92 0.92 0.0 0 1 961.10 392.70
  L 961.10 396.37
  A 0.96 0.96 0.0 0 1 960.25 397.32
  C 948.22 398.66 950.11 390.12 950.04 381.99
  A 0.64 0.64 0.0 0 0 949.40 381.36
  L 947.41 381.36
  A 0.63 0.62 -90.0 0 1 946.79 380.73
  L 946.79 376.37
  Z"
/>
<path fill="#091b44" d="
  M 455.64 378.24
  A 0.32 0.32 0.0 0 0 456.19 378.46
  C 461.70 372.57 471.03 375.65 471.11 384.13
  Q 471.20 393.37 471.18 396.35
  A 0.96 0.96 0.0 0 1 470.22 397.31
  L 468.22 397.31
  A 0.98 0.97 0.3 0 1 467.24 396.33
  Q 467.30 385.72 467.30 385.53
  C 467.25 376.45 456.32 377.59 455.91 385.01
  Q 455.76 387.65 455.88 396.28
  A 1.01 1.00 -0.6 0 1 454.87 397.30
  L 452.95 397.30
  A 1.02 1.01 -0.0 0 1 451.93 396.29
  L 451.93 376.67
  A 0.82 0.82 0.0 0 1 452.58 375.87
  Q 453.69 375.65 455.10 375.83
  A 0.63 0.62 -86.3 0 1 455.64 376.45
  L 455.64 378.24
  Z"
/>
<path fill="#091b44" d="
  M 491.94 379.36
  A 1.07 1.07 0.0 0 1 491.59 380.90
  L 490.50 381.54
  A 1.57 1.56 55.5 0 1 488.51 381.17
  Q 485.66 377.65 481.03 379.74
  A 2.16 1.96 -29.6 0 0 480.03 382.78
  Q 480.80 383.85 482.37 384.17
  Q 487.73 385.27 489.28 385.99
  C 493.35 387.90 493.91 392.24 490.96 395.33
  Q 489.07 397.31 485.31 397.57
  Q 479.08 398.00 475.66 393.53
  A 1.16 1.15 60.8 0 1 476.16 391.75
  L 477.17 391.36
  A 2.05 2.03 59.6 0 1 479.48 391.97
  Q 482.58 395.75 487.72 393.49
  A 2.30 1.97 -22.8 0 0 489.05 390.84
  Q 488.45 389.28 486.63 388.90
  Q 482.04 387.94 480.03 387.08
  C 474.81 384.82 474.43 379.39 479.19 376.64
  C 483.18 374.35 489.35 375.54 491.94 379.36
  Z"
/>
<path fill="#091b44" d="
  M 525.01 378.60
  A 0.30 0.30 0.0 0 0 525.54 378.80
  Q 528.48 375.31 532.82 375.60
  A 0.61 0.61 0.0 0 1 533.39 376.21
  L 533.39 378.89
  A 0.60 0.60 0.0 0 1 532.71 379.49
  C 526.87 378.72 524.82 382.63 525.15 388.16
  Q 525.21 389.22 525.17 396.16
  A 1.11 1.11 0.0 0 1 524.06 397.26
  L 522.61 397.26
  A 1.09 1.09 0.0 0 1 521.52 396.17
  L 521.52 376.63
  A 0.81 0.80 90.0 0 1 522.32 375.82
  L 524.21 375.82
  A 0.80 0.80 0.0 0 1 525.01 376.62
  L 525.01 378.60
  Z"
/>
<path fill="#091b44" d="
  M 551.10 394.89
  A 0.27 0.27 0.0 0 0 550.65 394.70
  Q 545.23 399.98 538.59 395.95
  C 536.80 394.86 535.86 391.97 536.41 389.77
  C 537.82 384.06 545.27 384.37 550.13 384.77
  A 0.82 0.82 0.0 0 0 551.02 383.85
  C 550.27 378.17 544.07 377.26 540.78 381.50
  A 1.30 1.29 -56.4 0 1 539.13 381.84
  L 537.67 381.03
  A 0.96 0.96 0.0 0 1 537.42 379.53
  Q 542.44 374.03 549.26 376.07
  Q 554.40 377.60 554.67 383.01
  Q 554.95 388.56 554.72 396.44
  A 0.76 0.76 0.0 0 1 554.18 397.14
  Q 553.34 397.40 551.71 397.13
  A 0.74 0.72 -85.5 0 1 551.10 396.40
  L 551.10 394.89
  Z"
/>
<path fill="#091b44" d="
  M 563.89 378.26
  A 0.32 0.32 0.0 0 0 564.43 378.48
  C 569.90 372.61 579.18 375.66 579.27 384.09
  Q 579.38 393.28 579.36 396.24
  A 0.95 0.95 0.0 0 1 578.41 397.20
  L 576.42 397.20
  A 0.97 0.96 0.2 0 1 575.44 396.23
  Q 575.49 385.68 575.49 385.49
  C 575.43 376.46 564.56 377.61 564.16 384.99
  Q 564.02 387.61 564.15 396.19
  A 1.00 0.99 -0.6 0 1 563.15 397.21
  L 561.24 397.21
  A 1.01 1.00 -0.1 0 1 560.22 396.21
  L 560.20 376.70
  A 0.82 0.81 -6.2 0 1 560.84 375.91
  Q 561.94 375.69 563.35 375.86
  A 0.62 0.62 0.0 0 1 563.88 376.48
  L 563.89 378.26
  Z"
/>
<path fill="#091b44" d="
  M 587.58 386.60
  C 587.56 393.40 595.42 397.26 599.49 391.18
  A 1.34 1.34 0.0 0 1 601.08 390.66
  L 602.80 391.29
  A 0.96 0.95 26.9 0 1 603.26 392.71
  C 597.29 401.88 583.67 397.90 583.69 386.59
  C 583.72 375.28 597.34 371.35 603.29 380.55
  A 0.96 0.95 -26.7 0 1 602.82 381.96
  L 601.09 382.59
  A 1.34 1.34 0.0 0 1 599.51 382.06
  C 595.46 375.97 587.59 379.80 587.58 386.60
  Z"
/>
<path fill="#091b44" d="
  M 611.96 387.91
  A 0.73 0.73 0.0 0 0 611.27 388.88
  C 613.13 394.24 618.83 396.25 622.98 391.86
  A 1.48 1.48 0.0 0 1 624.66 391.53
  L 626.03 392.15
  A 0.89 0.89 0.0 0 1 626.35 393.52
  Q 623.35 397.19 619.37 397.59
  C 611.29 398.42 606.30 392.61 607.42 384.47
  C 609.25 371.15 629.33 373.18 627.45 387.50
  A 0.47 0.47 0.0 0 1 626.98 387.91
  L 611.96 387.91
  Z"
/>
<path fill="#091b44" d="
  M 683.3468 375.4943
  A 11.13 10.88 -94.5 0 1 695.0665 385.7364
  A 11.13 10.88 -94.5 0 1 685.0932 397.6857
  A 11.13 10.88 -94.5 0 1 673.3735 387.4436
  A 11.13 10.88 -94.5 0 1 683.3468 375.4943
  Z"
/>
<path fill="#091b44" d="
  M 703.79 378.22
  C 704.46 377.70 704.93 376.92 705.65 376.57
  Q 711.86 373.54 715.41 379.03
  A 0.46 0.45 46.3 0 0 716.17 379.05
  Q 719.22 374.75 724.55 375.73
  C 729.64 376.67 730.60 381.87 730.48 386.25
  Q 730.43 388.13 730.34 396.30
  A 0.94 0.93 -89.7 0 1 729.41 397.23
  L 727.33 397.23
  A 0.85 0.85 0.0 0 1 726.48 396.38
  L 726.48 383.52
  A 4.25 4.25 0.0 0 0 721.88 379.28
  L 721.35 379.32
  A 4.93 4.93 0.0 0 0 716.82 384.23
  L 716.82 396.39
  A 0.85 0.85 0.0 0 1 715.97 397.24
  L 713.84 397.24
  A 0.84 0.84 0.0 0 1 713.00 396.40
  L 713.00 383.26
  A 4.07 4.07 0.0 0 0 708.30 379.24
  L 707.81 379.31
  A 5.08 5.07 85.6 0 0 703.52 384.33
  L 703.52 396.57
  A 0.72 0.72 0.0 0 1 702.80 397.29
  L 700.36 397.29
  A 0.81 0.81 0.0 0 1 699.55 396.48
  L 699.55 376.43
  A 0.66 0.66 0.0 0 1 700.21 375.77
  L 702.63 375.77
  A 0.66 0.65 -0.0 0 1 703.29 376.42
  L 703.29 377.97
  A 0.31 0.31 0.0 0 0 703.79 378.22
  Z"
/>
<path fill="#091b44" d="
  M 740.15 394.62
  A 0.24 0.24 0.0 0 0 739.75 394.80
  L 739.75 405.11
  A 1.01 1.01 0.0 0 1 738.74 406.12
  L 737.12 406.12
  A 1.15 1.14 0.0 0 1 735.97 404.98
  L 735.97 376.63
  A 0.82 0.82 0.0 0 1 736.79 375.81
  L 739.04 375.81
  A 0.60 0.60 0.0 0 1 739.64 376.41
  L 739.64 378.39
  A 0.32 0.31 -23.8 0 0 740.19 378.60
  Q 743.59 374.99 748.32 375.62
  C 759.45 377.10 759.72 395.01 748.99 397.45
  Q 744.36 398.51 740.15 394.62
  Z"
/>
<path fill="#091b44" d="
  M 793.74 394.93
  A 0.27 0.27 0.0 0 0 793.28 394.74
  Q 787.84 400.04 781.17 395.99
  C 779.37 394.89 778.43 391.99 778.98 389.78
  C 780.40 384.05 787.89 384.36 792.77 384.77
  A 0.83 0.82 -1.4 0 0 793.66 383.84
  C 792.91 378.14 786.68 377.22 783.38 381.48
  A 1.31 1.30 -56.4 0 1 781.72 381.82
  L 780.25 381.00
  A 0.97 0.97 0.0 0 1 780.00 379.50
  Q 785.05 373.98 791.90 376.03
  Q 797.06 377.57 797.33 383.00
  Q 797.61 388.57 797.37 396.49
  A 0.77 0.76 -7.6 0 1 796.83 397.19
  Q 795.98 397.45 794.35 397.18
  A 0.74 0.73 -85.4 0 1 793.74 396.45
  L 793.74 394.93
  Z"
/>
<path fill="#091b44" d="
  M 806.45 378.22
  A 0.32 0.32 0.0 0 0 807.00 378.45
  C 812.52 372.61 821.80 375.73 821.84 384.18
  Q 821.88 393.39 821.84 396.36
  A 0.96 0.96 0.0 0 1 820.88 397.31
  L 818.89 397.30
  A 0.98 0.97 0.6 0 1 817.91 396.32
  Q 818.03 385.74 818.03 385.55
  C 818.03 376.50 807.13 377.58 806.69 384.97
  Q 806.52 387.60 806.59 396.20
  A 1.01 1.00 -0.2 0 1 805.58 397.21
  L 803.67 397.20
  A 1.02 1.01 0.3 0 1 802.66 396.19
  L 802.76 376.64
  A 0.82 0.81 -5.8 0 1 803.42 375.85
  Q 804.52 375.63 805.93 375.82
  A 0.62 0.62 0.0 0 1 806.46 376.44
  L 806.45 378.22
  Z"
/>
<path fill="#091b44" d="
  M 826.05 386.73
  C 825.87 375.42 839.44 371.25 845.55 380.34
  A 0.96 0.96 0.0 0 1 845.10 381.77
  L 843.39 382.42
  A 1.35 1.34 -27.7 0 1 841.80 381.93
  C 837.64 375.90 829.83 379.87 829.94 386.67
  C 830.04 393.48 837.97 397.20 841.94 391.05
  A 1.35 1.34 25.9 0 1 843.52 390.50
  L 845.25 391.10
  A 0.96 0.96 0.0 0 1 845.74 392.51
  C 839.92 401.80 826.23 398.05 826.05 386.73
  Z"
/>
<path fill="#091b44" d="
  M 854.04 387.94
  A 0.73 0.72 -10.0 0 0 853.36 388.91
  C 855.24 394.23 860.92 396.19 865.03 391.80
  A 1.48 1.47 33.4 0 1 866.69 391.47
  L 868.06 392.07
  A 0.88 0.88 0.0 0 1 868.39 393.43
  Q 865.43 397.10 861.47 397.52
  C 853.44 398.40 848.44 392.65 849.51 384.55
  C 851.25 371.29 871.23 373.19 869.45 387.44
  A 0.47 0.46 3.1 0 1 868.98 387.85
  L 854.04 387.94
  Z"
/>
<path fill="#014dd0" d="
  M 985.34 386.63
  A 11.09 11.09 0.0 0 1 974.25 397.72
  A 11.09 11.09 0.0 0 1 963.16 386.63
  A 11.09 11.09 0.0 0 1 974.25 375.54
  A 11.09 11.09 0.0 0 1 985.34 386.63
  Z"
/>
<path fill="#014dd0" d="
  M 1007.00 378.44
  Q 1010.94 374.28 1015.43 375.85
  Q 1020.07 377.47 1020.50 382.79
  Q 1020.80 386.39 1020.54 396.64
  A 0.55 0.54 0.5 0 1 1019.99 397.17
  L 1015.19 397.17
  A 0.58 0.58 0.0 0 1 1014.61 396.59
  L 1014.61 384.18
  A 3.10 3.10 0.0 0 0 1011.28 381.09
  L 1010.92 381.11
  A 3.45 3.44 88.3 0 0 1007.68 384.55
  L 1007.68 396.51
  A 0.67 0.67 0.0 0 1 1007.01 397.18
  L 1002.50 397.18
  A 0.78 0.78 0.0 0 1 1001.72 396.40
  L 1001.72 384.36
  A 3.22 3.22 0.0 0 0 998.36 381.14
  L 997.95 381.16
  A 3.44 3.43 -1.2 0 0 994.66 384.59
  L 994.66 396.63
  A 0.59 0.59 0.0 0 1 994.07 397.22
  L 989.21 397.22
  A 0.57 0.57 0.0 0 1 988.64 396.65
  L 988.64 376.48
  A 0.64 0.64 0.0 0 1 989.28 375.84
  L 993.64 375.84
  A 0.64 0.64 0.0 0 1 994.28 376.47
  Q 994.29 377.64 994.29 377.66
  A 0.26 0.26 0.0 0 0 994.71 377.89
  Q 1000.97 372.63 1006.19 378.43
  A 0.55 0.55 0.0 0 0 1007.00 378.44
  Z"
/>
<path fill="#014dd0" d="
  M 1038.25 395.29
  A 0.38 0.38 0.0 0 0 1037.60 395.02
  Q 1033.70 399.03 1028.28 396.94
  C 1021.70 394.40 1023.09 384.94 1030.38 384.53
  Q 1035.25 384.25 1037.05 384.53
  A 0.77 0.76 -6.6 0 0 1037.88 383.49
  Q 1036.42 379.89 1032.53 380.84
  C 1031.38 381.12 1030.71 381.99 1029.82 382.48
  A 1.66 1.66 0.0 0 1 1028.62 382.63
  Q 1026.97 382.22 1025.25 381.11
  A 0.74 0.73 -54.2 0 1 1025.08 380.03
  Q 1029.02 375.11 1035.27 375.56
  C 1040.09 375.90 1043.72 379.23 1043.82 384.01
  Q 1043.87 386.91 1043.79 396.72
  A 0.55 0.55 0.0 0 1 1043.24 397.26
  L 1038.87 397.26
  A 0.62 0.62 0.0 0 1 1038.25 396.64
  L 1038.25 395.29
  Z"
/>
<path fill="#014dd0" d="
  M 1084.57 387.90
  A 0.39 0.39 0.0 0 1 1084.18 388.25
  L 1069.88 388.25
  A 0.61 0.60 -12.5 0 0 1069.33 389.11
  C 1071.05 392.83 1075.56 393.69 1078.32 390.67
  A 1.45 1.44 -56.4 0 1 1079.98 390.33
  L 1083.17 391.78
  A 0.84 0.84 0.0 0 1 1083.50 393.04
  C 1075.98 403.17 1059.38 395.34 1063.84 382.65
  C 1067.99 370.83 1086.20 374.36 1084.57 387.90
  Z"
/>
<path fill="#091b44" d="
  M 511.31 394.86
  Q 510.93 395.14 510.60 395.55
  C 508.82 397.72 505.09 397.96 502.74 397.23
  Q 497.32 395.53 497.15 389.51
  Q 496.99 384.07 497.07 376.58
  A 0.81 0.80 0.0 0 1 497.88 375.78
  L 500.08 375.78
  A 0.84 0.84 0.0 0 1 500.92 376.62
  Q 500.87 384.84 501.03 388.99
  C 501.21 393.69 505.50 395.39 509.30 393.15
  C 512.15 391.47 511.88 388.32 511.90 384.64
  Q 511.92 380.44 511.94 376.76
  A 0.94 0.94 0.0 0 1 512.88 375.83
  L 514.85 375.83
  A 0.89 0.88 90.0 0 1 515.73 376.72
  L 515.73 396.40
  A 0.79 0.79 0.0 0 1 515.07 397.18
  Q 513.71 397.41 512.45 397.17
  A 0.72 0.72 0.0 0 1 511.86 396.46
  L 511.86 395.14
  A 0.35 0.35 0.0 0 0 511.31 394.86
  Z"
/>
<rect fill="#091b44" x="-1.92" y="-10.67" transform="translate(772.24,386.51) rotate(-0.1)" width="3.84" height="21.34" rx="0.95"/>
<path fill="#014dd0" d="
  M 937.79 395.15
  Q 935.10 397.38 934.09 397.48
  Q 924.33 398.47 923.92 388.48
  Q 923.74 383.95 923.98 376.48
  A 0.65 0.65 0.0 0 1 924.63 375.85
  L 929.32 375.85
  A 0.57 0.57 0.0 0 1 929.89 376.42
  L 929.89 388.26
  A 3.77 3.77 0.0 0 0 933.90 392.02
  L 934.22 392.00
  A 3.94 3.93 88.2 0 0 937.91 388.07
  L 937.91 376.43
  A 0.64 0.63 -90.0 0 1 938.54 375.79
  L 943.34 375.79
  A 0.75 0.75 0.0 0 1 944.09 376.55
  Q 944.02 382.45 944.09 389.16
  C 944.11 391.61 943.62 394.07 943.37 396.43
  A 0.87 0.86 -87.1 0 1 942.51 397.21
  L 939.31 397.21
  A 0.78 0.78 0.0 0 1 938.53 396.43
  L 938.53 395.50
  A 0.45 0.45 0.0 0 0 937.79 395.15
  Z"
/>
<rect fill="#091b44" x="-6.91" y="-1.66" transform="translate(388.23,384.96) rotate(0.1)" width="13.82" height="3.32" rx="0.74"/>
<circle fill="#014dd0" cx="1117.90" cy="393.64" r="3.94"/>
<circle fill="#091b44" cx="876.53" cy="394.72" r="2.90"/>
</g>
<ellipse fill="#ffffff" cx="0.00" cy="0.00" transform="translate(598.69,272.73) rotate(-90.4)" rx="20.91" ry="20.15"/>
<ellipse fill="#ffffff" cx="0.00" cy="0.00" transform="translate(430.37,272.70) rotate(-85.8)" rx="20.91" ry="20.38"/>
<ellipse fill="#ffffff" cx="0.00" cy="0.00" transform="translate(687.49,272.74) rotate(-90.2)" rx="20.93" ry="20.33"/>
<path fill="#ffffff" d="
  M 1090.12 253.34
  C 1099.85 253.33 1106.02 258.90 1107.72 268.26
  A 0.60 0.60 0.0 0 1 1107.10 268.96
  Q 1104.05 268.82 1090.14 268.84
  Q 1076.22 268.86 1073.17 269.01
  A 0.60 0.60 0.0 0 1 1072.56 268.31
  C 1074.23 258.94 1080.38 253.36 1090.12 253.34
  Z"
/>
<ellipse fill="#ffffff" cx="0.00" cy="0.00" transform="translate(360.56,382.57) rotate(-88.2)" rx="11.55" ry="10.65"/>
<ellipse fill="#ffffff" cx="0.00" cy="0.00" transform="translate(413.36,388.01) rotate(-4.6)" rx="6.68" ry="6.09"/>
<ellipse fill="#ffffff" cx="0.00" cy="0.00" transform="translate(1098.37,386.50) rotate(-91.2)" rx="5.63" ry="5.09"/>
<path fill="#ffffff" d="
  M 902.51 385.75
  L 906.12 375.81
  A 0.44 0.44 0.0 0 1 906.95 375.80
  L 910.66 385.70
  A 0.44 0.44 0.0 0 1 910.25 386.30
  L 902.93 386.34
  A 0.44 0.44 0.0 0 1 902.51 385.75
  Z"
/>
<path fill="#ffffff" d="
  M 550.89 388.44
  C 550.51 392.61 547.50 394.95 543.48 394.30
  C 539.05 393.59 538.93 388.52 543.17 387.88
  Q 545.53 387.52 550.33 387.80
  A 0.59 0.59 0.0 0 1 550.89 388.44
  Z"
/>
<path fill="#ffffff" d="
  M 611.64 384.73
  A 0.11 0.11 0.0 0 1 611.53 384.62
  L 611.53 384.53
  A 5.94 5.44 -0.3 0 1 617.45 379.06
  L 617.61 379.06
  A 5.94 5.44 -0.3 0 1 623.57 384.47
  L 623.57 384.56
  A 0.11 0.11 0.0 0 1 623.46 384.67
  L 611.64 384.73
  Z"
/>
<ellipse fill="#ffffff" cx="0.00" cy="0.00" transform="translate(684.34,386.62) rotate(-87.8)" rx="7.51" ry="6.82"/>
<ellipse fill="#ffffff" cx="0.00" cy="0.00" transform="translate(746.27,386.63) rotate(-86.5)" rx="7.55" ry="6.67"/>
<path fill="#ffffff" d="
  M 793.57 388.35
  C 793.51 393.31 787.59 396.23 783.68 393.09
  A 2.85 2.67 34.6 0 1 782.92 389.57
  C 784.22 387.32 789.22 387.52 792.92 387.68
  A 0.67 0.67 0.0 0 1 793.57 388.35
  Z"
/>
<path fill="#ffffff" d="
  M 853.75 384.65
  A 0.12 0.12 0.0 0 1 853.63 384.53
  L 853.63 384.45
  A 5.88 5.36 0.1 0 1 859.51 379.10
  L 859.75 379.10
  A 5.88 5.36 0.1 0 1 865.63 384.47
  L 865.63 384.55
  A 0.12 0.12 0.0 0 1 865.51 384.67
  L 853.75 384.65
  Z"
/>
<ellipse fill="#ffffff" cx="0.00" cy="0.00" transform="translate(974.24,386.53) rotate(-89.4)" rx="5.53" ry="5.07"/>
<path fill="#ffffff" d="
  M 1036.65 388.20
  A 1.21 1.21 0.0 0 1 1037.65 390.00
  L 1037.02 391.13
  A 3.32 3.32 0.0 0 1 1034.65 392.80
  Q 1031.10 393.40 1030.08 391.03
  A 2.10 1.88 -14.0 0 1 1031.88 388.38
  Q 1034.37 388.10 1036.65 388.20
  Z"
/>
<path fill="#ffffff" d="
  M 1069.61 384.36
  A 0.12 0.12 0.0 0 1 1069.49 384.24
  L 1069.49 384.19
  A 4.46 3.49 -0.2 0 1 1073.93 380.68
  L 1074.27 380.68
  A 4.46 3.49 -0.2 0 1 1078.75 384.15
  L 1078.75 384.20
  A 0.12 0.12 0.0 0 1 1078.63 384.32
  L 1069.61 384.36
  Z"
/>
</svg>
