<?xml version="1.0" encoding="UTF-8" standalone="no"?>
<svg
   version="1.1"
   viewBox="-62 -409 1087 272"
   id="svg57"
   sodipodi:docname="new.svg"
   inkscape:version="1.4.4 (dcaf3e7d, 2026-05-05)"
   xmlns:inkscape="http://www.inkscape.org/namespaces/inkscape"
   xmlns:sodipodi="http://sodipodi.sourceforge.net/DTD/sodipodi-0.dtd"
   xmlns="http://www.w3.org/2000/svg"
   xmlns:svg="http://www.w3.org/2000/svg">
  <defs
     id="defs57" />
  <sodipodi:namedview
     id="namedview57"
     pagecolor="#ffffff"
     bordercolor="#000000"
     borderopacity="0.25"
     inkscape:showpageshadow="2"
     inkscape:pageopacity="0.0"
     inkscape:pagecheckerboard="0"
     inkscape:deskcolor="#d1d1d1"
     inkscape:zoom="0.29600962"
     inkscape:cx="624.97969"
     inkscape:cy="-91.213252"
     inkscape:window-width="1440"
     inkscape:window-height="847"
     inkscape:window-x="0"
     inkscape:window-y="25"
     inkscape:window-maximized="0"
     inkscape:current-layer="svg57" />
  <g
     id="g57">
    <path
       fill="#091b44"
       d="m 135.00009,-242.9326 a 0.45,0.45 0 0 1 -0.69,-0.52 q 8.61,-22.2 11.08,-45.74 1.07,-10.29 0.95,-27.5 -0.04,-5.36 -0.01,-27.56 a 0.47,0.47 0 0 0 -0.34,-0.45 c -29.83,-8.52 -57.95,-20.9 -84.87,-36.09 a 0.47,0.47 0 0 0 -0.46,0 q -45.29,25.45 -96.58,38.28 a 0.82,0.84 82.8 0 0 -0.63,0.8 q -0.16,21.8 0.21,42.03 0.12,6.23 1.93,17.98 5.68,36.9 28.91,65.76 c 17.67,21.96 39.82,37.17 66.23,50.94 a 1.06,1.08 44.4 0 0 1.04,-0.02 l 13.86,-8 a 0.69,0.7 58 0 1 0.92,0.21 l 9.16,13.17 a 0.54,0.54 0 0 1 -0.17,0.77 l -22.83,13.18 a 2.88,2.9 42.8 0 1 -2.65,0.11 c -26.94,-12.76 -51.67,-28.77 -71.67,-50.74 q -26.02,-28.59 -35.92,-64.32 -3.67,-13.23 -5.53,-28.86 -1.15,-9.69 -1.07,-29.37 0.07,-19.07 0,-36.38 a 1.37,1.39 83.5 0 1 1.09,-1.35 q 60.52,-12.85 113.35,-44.13 a 1.29,1.27 44.6 0 1 1.31,0 c 31.97,18.9 65.17,33.39 101.2,42.24 a 0.95,0.94 7.3 0 1 0.72,0.93 q -0.18,20.25 -0.01,35.94 0.21,19.09 -0.92,29.88 -1.72,16.44 -4.74,29.52 c -0.55,2.36 -0.49,3.05 -2.57,4.5 q -12.56,8.79 -20.3,14.79 z"
       id="path2" />
    <path
       fill="#091b44"
       d="m 113.15009,-306.8526 a 0.15,0.15 0 0 1 -0.22,0.13 l -6.5,-3.61 a 0.43,0.43 0 0 1 -0.23,-0.38 v -10.34 a 1.18,1.18 0 0 0 -0.6,-1.03 l -45.77,-25.43 a 0.28,0.28 0 0 0 -0.42,0.25 v 158.33 a 0.22,0.21 65.7 0 1 -0.05,0.14 q -0.25,0.27 -0.63,0.06 -19.51,-11.09 -37.28,-22.04 a 1.36,1.37 15.9 0 1 -0.64,-1.16 v -120.78 a 1.79,1.76 75.2 0 1 0.88,-1.54 l 37.6,-21.71 a 0.64,0.63 45.4 0 1 0.64,0.01 q 24.06,14.7 51.78,30.27 c 1.77,0.99 1.34,1.97 1.37,3.6 q 0.11,7.14 0.07,15.23 z"
       id="path3" />
    <ellipse
       fill="#014dd0"
       cx="461.09158"
       cy="595.76556"
       transform="rotate(-79)"
       rx="10.96"
       ry="10.72"
       id="ellipse3" />
    <path
       id="path4"
       d="M 511.82031 -349.26172 A 0.62 0.62 0 0 0 511.19922 -348.64258 L 511.19922 -310.22266 A 0.2 0.2 0 0 1 510.83984 -310.10352 C 501.53984 -321.57352 484.50969 -323.3425 471.92969 -317.0625 C 458.99969 -310.6125 452.48953 -297.57164 452.26953 -282.93164 C 452.04953 -268.50164 457.39938 -254.79203 469.85938 -247.58203 C 477.15271 -243.35536 485.25349 -241.99219 494.16016 -243.49219 C 500.78682 -244.60552 506.25388 -247.93576 510.56055 -253.48242 A 0.41 0.41 0 0 1 511.29102 -253.23242 L 511.29102 -244.94336 A 0.6 0.6 0 0 0 511.89062 -244.3418 L 529.79102 -244.3418 A 0.6 0.6 0 0 0 530.39062 -244.94336 L 530.39062 -348.83203 A 0.44 0.43 0 0 0 529.94922 -349.26172 L 511.82031 -349.26172 z M 491.52344 -302.60156 A 20.91 20.15 89.6 0 1 511.82031 -281.83398 A 20.91 20.15 89.6 0 1 491.81641 -260.7832 A 20.91 20.15 89.6 0 1 471.52148 -281.55273 A 20.91 20.15 89.6 0 1 491.52344 -302.60156 z "
       style="fill:#091b44;fill-opacity:1" />
    <path
       fill="#091b44"
       d="m 223.74009,-281.8026 c -0.03,8.35 3.96,15.51 10.91,18.8 9.55,4.53 20.3,1.68 25.85,-7.54 a 0.66,0.66 0 0 1 0.88,-0.24 l 15.44,8.58 a 0.68,0.68 0 0 1 0.26,0.92 c -7.78,13.69 -22.55,19.88 -37.9,18.24 -21.13,-2.27 -34.88,-17.82 -34.78,-38.85 0.1,-21.04 13.99,-36.46 35.14,-38.53 15.36,-1.5 30.07,4.82 37.73,18.59 a 0.68,0.68 0 0 1 -0.27,0.91 l -15.52,8.44 a 0.66,0.66 0 0 1 -0.88,-0.25 c -5.46,-9.27 -16.19,-12.22 -25.77,-7.78 -6.99,3.23 -11.05,10.35 -11.09,18.71 z"
       id="path5" />
    <path
       id="path6"
       d="M 322.71094 -320.67188 C 299.78094 -320.28188 283.46938 -303.88203 283.85938 -281.08203 C 284.24938 -258.27203 301.0993 -242.44203 324.0293 -242.83203 C 346.9593 -243.22203 363.27086 -259.62187 362.88086 -282.42188 C 362.49086 -305.23188 345.64094 -321.06187 322.71094 -320.67188 z M 322.21484 -302.59375 A 20.379999 20.91 4.2 0 1 324.88086 -302.57617 A 20.379999 20.91 4.2 0 1 343.67578 -280.23047 A 20.379999 20.91 4.2 0 1 321.81836 -260.86914 A 20.379999 20.91 4.2 0 1 303.02539 -283.21484 A 20.379999 20.91 4.2 0 1 322.21484 -302.59375 z "
       style="fill:#091b44;fill-opacity:1" />
    <path
       fill="#091b44"
       d="m 392.33009,-310.2926 a 0.21,0.21 0 0 0 0.38,0.13 c 6.21,-8.77 17.46,-11.96 27.69,-9.89 16.23,3.28 21.89,15.94 21.94,31.31 q 0.08,24.8 0.01,43.68 a 0.71,0.71 0 0 1 -0.71,0.71 h -17.45 a 0.73,0.73 0 0 1 -0.73,-0.72 q -0.15,-21.85 -0.02,-40.31 c 0.07,-9.21 -4.24,-16.81 -14.47,-16.87 q -10.9,-0.07 -14.92,8.7 -1.72,3.75 -1.66,13.54 0.15,23.12 0.04,34.99 a 0.68,0.68 0 0 1 -0.68,0.68 h -17.85 a 0.73,0.72 0 0 1 -0.73,-0.72 v -73.44 a 0.5,0.49 0 0 1 0.5,-0.49 h 18.24 a 0.42,0.41 0 0 1 0.42,0.41 z"
       id="path7" />
    <path
       id="path8"
       d="M 581.93555 -320.50977 C 580.55257 -320.5371 579.14695 -320.50172 577.7207 -320.40234 C 554.8907 -318.81234 539.51008 -301.62187 541.08008 -278.92188 C 542.66008 -256.22188 560.27961 -241.33187 583.09961 -242.92188 C 605.92961 -244.50188 621.31023 -261.69258 619.74023 -284.39258 C 618.25898 -305.67383 602.68022 -320.09979 581.93555 -320.50977 z M 580.39648 -302.61328 A 20.93 20.33 89.8 0 1 600.80078 -281.75391 A 20.93 20.33 89.8 0 1 580.54297 -260.75195 A 20.93 20.33 89.8 0 1 560.14062 -281.61133 A 20.93 20.33 89.8 0 1 580.39648 -302.61328 z "
       style="fill:#091b44;fill-opacity:1" />
    <path
       fill="#014dd0"
       d="m 710.10009,-305.1726 c 4.67,-6.07 10.41,-9.45 17.97,-10.07 q 7.5,-0.61 12.95,1.05 c 11.33,3.43 17.66,12.92 17.76,24.55 q 0.22,22.68 0.14,44.67 a 0.56,0.57 0.5 0 1 -0.56,0.56 h -14.61 a 0.72,0.71 89.2 0 1 -0.71,-0.7 q -0.08,-3.27 -0.08,-34.81 c 0,-6.64 -0.35,-13.88 -6.12,-17.82 q -4.83,-3.3 -12.23,-2.59 -10.71,1.01 -13.98,12.21 -0.85,2.89 -0.83,10.7 0.05,27.48 0.01,32.29 a 0.75,0.75 0 0 1 -0.75,0.74 h -14.66 a 0.86,0.86 0 0 1 -0.86,-0.86 v -68.18 a 0.49,0.49 0 0 1 0.49,-0.49 h 15.31 a 0.65,0.64 1.3 0 1 0.65,0.67 l -0.38,7.9 a 0.27,0.27 0 0 0 0.49,0.18 z"
       id="path9" />
    <path
       fill="#014dd0"
       d="m 823.00009,-301.4626 a 0.58,0.58 0 0 1 -0.21,0.8 l -11.91,6.88 a 0.4,0.4 0 0 1 -0.53,-0.13 q -4.46,-6.98 -13.1,-7.27 c -4.31,-0.14 -10.78,0.53 -11.79,5.87 -0.78,4.14 3.14,6.48 6.66,7.54 12,3.59 32.49,4.65 32.17,23.69 -0.18,10.7 -7.79,17.59 -18.01,19.98 -14.15,3.31 -31.18,0.22 -38.84,-13.67 a 0.63,0.63 0 0 1 0.23,-0.85 l 11.55,-6.67 a 0.87,0.87 0 0 1 1.14,0.25 c 3.01,4.27 5.65,6.96 11,7.99 5.21,1 17.64,1.05 17.34,-7.27 q -0.16,-4.38 -5.53,-5.79 c -12.45,-3.27 -26.52,-5.22 -31.53,-14.67 q -3.85,-7.25 -1.67,-14.75 c 3.61,-12.45 16.54,-16.43 28.25,-15.66 10.65,0.71 19.43,4.65 24.78,13.73 z"
       id="path10" />
    <path
       id="path11"
       d="M 984.71875 -315.20312 C 983.17573 -315.24944 981.57555 -315.22078 979.91992 -315.11328 C 968.39326 -314.36661 959.72349 -308.96854 953.91016 -298.92188 C 948.19016 -289.05187 947.46102 -274.92289 951.29102 -264.46289 C 955.45102 -253.11622 963.60953 -246.21505 975.76953 -243.76172 C 990.13953 -240.85172 1004.8409 -244.76289 1013.4609 -257.21289 A 0.45 0.45 0 0 0 1013.3105 -257.86328 L 1001.6699 -264.33203 A 0.58 0.57 35.4 0 0 1000.9707 -264.22266 C 994.85736 -257.65599 987.53023 -255.41529 978.99023 -257.50195 C 971.20023 -259.41195 966.44016 -264.8318 965.41016 -272.5918 A 0.63 0.64 86.1 0 1 966.04102 -273.3125 L 1015.8809 -273.3125 A 0.44 0.44 0 0 0 1016.3203 -273.72266 C 1018.3453 -296.88828 1007.864 -314.50839 984.71875 -315.20312 z M 983.09961 -301.08203 C 992.82961 -301.09203 998.99918 -295.52211 1000.6992 -286.16211 A 0.6 0.6 0 0 1 1000.0801 -285.46289 C 998.04672 -285.55622 992.39247 -285.59536 983.11914 -285.58203 C 973.83914 -285.5687 968.18372 -285.51211 966.15039 -285.41211 A 0.6 0.6 0 0 1 965.54102 -286.11328 C 967.21102 -295.48328 973.35961 -301.06203 983.09961 -301.08203 z "
       style="fill:#014dd0;fill-opacity:1" />
    <path
       fill="#014dd0"
       d="m 924.21009,-305.5126 a 0.46,0.46 0 0 0 0.86,0.24 c 4.67,-8.41 14.6,-10.99 23.52,-9.14 a 0.53,0.53 0 0 1 0.42,0.54 l -0.68,14.21 a 0.6,0.6 0 0 1 -0.75,0.56 q -3.8,-0.91 -9.34,-0.09 c -9.87,1.44 -13.85,9.07 -13.83,18.52 q 0.08,27.4 0,35.72 a 0.56,0.56 0 0 1 -0.56,0.56 h -14.83 a 0.72,0.72 0 0 1 -0.72,-0.72 v -68.18 a 0.63,0.64 0 0 1 0.63,-0.64 h 14.91 a 0.74,0.74 0 0 1 0.74,0.77 z"
       id="path12"
       style="fill:#014dd0;fill-opacity:1" />
    <path
       fill="#091b44"
       d="m 113.20009,-294.8226 v 9.26 a 0.5,0.5 0 0 1 -0.67,0.47 l -42,-15.5 a 0.5,0.5 0 0 1 -0.33,-0.47 v -12.78 a 0.5,0.5 0 0 1 0.71,-0.46 l 42,19.03 a 0.5,0.5 0 0 1 0.29,0.45 z"
       id="path13" />
    <rect
       fill="#014dd0"
       x="664.34009"
       y="-314.0126"
       width="16.48"
       height="69.580002"
       rx="0.47999999"
       id="rect13" />
    <path
       fill="#014dd0"
       d="m 880.54009,-252.4126 a 0.3,0.31 63.4 0 0 -0.55,-0.18 c -7.19,9.57 -19.75,11.7 -30.73,8.13 -9.15,-2.97 -14.09,-10.1 -16.22,-19.28 q -0.84,-3.6 -0.84,-10.94 0.01,-14.43 -0.04,-38.77 a 0.47,0.47 0 0 1 0.47,-0.47 h 15.28 a 0.64,0.64 0 0 1 0.64,0.64 q -0.01,17.02 -0.05,33.68 -0.01,7.12 0.32,9.23 c 2.55,16.25 24.05,16.13 30.22,3.15 q 1.79,-3.75 1.51,-13.52 -0.06,-2.14 -0.02,-32.88 a 0.29,0.29 0 0 1 0.29,-0.29 h 15.1 a 0.65,0.66 0 0 1 0.65,0.66 v 68.19 a 0.7,0.7 0 0 1 -0.7,0.7 h -14.63 a 0.7,0.7 0 0 1 -0.7,-0.7 z"
       id="path14"
       style="fill:#014dd0;fill-opacity:1" />
    <path
       fill="#091b44"
       d="m 113.16009,-271.0026 v 9.18 a 0.69,0.69 0 0 1 -0.83,0.67 l -41.65,-8.83 a 0.69,0.69 0 0 1 -0.55,-0.68 v -12.73 a 0.69,0.69 0 0 1 0.89,-0.67 l 41.65,12.4 a 0.69,0.69 0 0 1 0.49,0.66 z"
       id="path15" />
    <circle
       fill="#014dd0"
       cx="637.25012"
       cy="-254.75259"
       r="11.51"
       id="circle15" />
    <path
       fill="#091b44"
       d="m 113.26009,-246.3826 v 9.27 a 0.59,0.59 0 0 1 -0.62,0.59 l -41.95,-1.99 a 0.59,0.59 0 0 1 -0.56,-0.59 v -13.51 a 0.59,0.59 0 0 1 0.68,-0.58 l 41.95,6.23 a 0.59,0.59 0 0 1 0.5,0.58 z"
       id="path16" />
    <path
       fill="#014dd0"
       d="m 167.61009,-248.4826 a 0.35,0.35 0 0 1 0.36,0.56 c -22.31,27.03 -45.73,54.48 -68.94,81.03 a 0.52,0.51 48.2 0 1 -0.81,-0.05 l -22.78,-32.77 a 1.2,1.19 43.4 0 1 -0.04,-1.3 c 2.61,-4.23 7.41,-0.58 10.98,1.81 q 5.69,3.82 12.27,9.28 a 0.76,0.76 0 0 0 0.99,-0.01 c 28.47,-24.94 47.72,-41.89 67.06,-58.03 q 0.48,-0.4 0.91,-0.52 z"
       id="path17" />
    <rect
       fill="#091b44"
       x="73.410522"
       y="-225.37981"
       transform="rotate(0.8)"
       width="25.860001"
       height="5.5599999"
       rx="0.64999998"
       id="rect17" />
    <rect
       fill="#b6b7b5"
       x="206.92009"
       y="-213.37262"
       width="807.96002"
       height="1.84"
       rx="0.70999998"
       id="rect18" />
    <circle
       fill="#091b44"
       cx="665.20007"
       cy="-184.90262"
       r="2.6099999"
       id="circle18" />
    <path
       id="path18"
       d="M 253.79883 -187.05078 A 14.72 15.21 0.9 0 0 238.8418 -172.07422 A 14.72 15.21 0.9 0 0 253.32031 -156.63477 A 14.72 15.21 0.9 0 0 268.27734 -171.61133 A 14.72 15.21 0.9 0 0 253.79883 -187.05078 z M 253.90234 -183.39648 A 10.65 11.55 1.8 0 1 264.18555 -171.51758 A 10.65 11.55 1.8 0 1 253.17773 -160.30859 A 10.65 11.55 1.8 0 1 242.89453 -172.1875 A 10.65 11.55 1.8 0 1 253.90234 -183.39648 z " />
    <path
       id="path19"
       d="M 305.67773 -186.89453 C 295.96677 -186.204 293.74063 -174.61875 295.39062 -166.3125 C 296.30062 -161.7725 299.19078 -157.79164 304.05078 -156.93164 C 306.96411 -156.41164 309.49086 -156.72018 311.63086 -157.85352 C 319.84086 -162.19352 318.36094 -174.55187 308.71094 -175.92188 C 305.04427 -176.43521 301.83341 -175.27164 299.08008 -172.43164 A 0.29 0.29 0 0 1 298.58008 -172.67188 C 299.25008 -178.09187 300.89023 -184.16305 307.99023 -183.12305 C 309.81023 -182.85638 311.19086 -181.98195 312.13086 -180.50195 A 1.1 1.09 59 0 0 313.59961 -180.13281 L 315.17969 -181.05273 A 0.88 0.89 58.4 0 0 315.48047 -182.30273 C 313.66714 -185.09607 311.0807 -186.62281 307.7207 -186.88281 C 307.0057 -186.93781 306.32513 -186.94057 305.67773 -186.89453 z M 306.72461 -172.50195 A 6.0900002 6.6799998 85.4 0 1 312.99805 -166.94922 A 6.0900002 6.6799998 85.4 0 1 306.82812 -160.3418 A 6.0900002 6.6799998 85.4 0 1 299.68164 -165.87695 A 6.0900002 6.6799998 85.4 0 1 305.85156 -172.48242 A 6.0900002 6.6799998 85.4 0 1 306.72461 -172.50195 z " />
    <path
       fill="#091b44"
       d="m 540.38009,-171.7226 c 0.05,6.03 3.63,11.22 10.11,11.28 q 5.67,0.06 8.43,-4.51 a 1.16,1.17 27.9 0 1 1.48,-0.46 l 1.64,0.74 a 0.88,0.88 0 0 1 0.39,1.26 q -3.08,5.11 -7.76,6.11 -12.86,2.75 -17.76,-9.37 -0.62,-1.52 -0.65,-5.01 -0.03,-3.49 0.56,-5.02 4.69,-12.2 17.6,-9.68 4.69,0.92 7.86,5.97 a 0.88,0.88 0 0 1 -0.37,1.27 l -1.62,0.77 a 1.17,1.16 61.1 0 1 -1.49,-0.43 q -2.84,-4.53 -8.5,-4.37 c -6.49,0.18 -9.97,5.43 -9.92,11.45 z"
       id="path20" />
    <rect
       fill="#091b44"
       x="653.38513"
       y="-189.31111"
       transform="rotate(0.2)"
       width="3.8399999"
       height="29.74"
       rx="0.75999999"
       id="rect20" />
    <path
       id="path21"
       d="M 996.80078 -187.00195 A 0.59 0.6 0 0 0 996.21094 -186.40234 L 996.21094 -176.99219 A 0.3 0.29 21.9 0 1 995.71094 -176.7832 C 994.27094 -178.1232 992.53333 -178.80536 990.5 -178.83203 C 985.22 -178.91203 980.95016 -175.48305 980.41016 -170.12305 C 979.86016 -164.63305 981.26047 -159.8625 986.48047 -157.5625 C 989.78714 -156.1025 992.93016 -156.54591 995.91016 -158.89258 A 0.48 0.48 0 0 1 996.68945 -158.51172 L 996.68945 -157.74219 A 0.55 0.55 0 0 0 997.24023 -157.19336 L 1001.8301 -157.19336 A 0.5 0.5 0 0 0 1002.3301 -157.69336 L 1002.3301 -186.41211 A 0.58 0.59 0 0 0 1001.75 -187.00195 L 996.80078 -187.00195 z M 991.23242 -173.55078 A 5.6300001 5.0900002 88.8 0 1 996.43945 -168.0293 A 5.6300001 5.0900002 88.8 0 1 991.46875 -162.29297 A 5.6300001 5.0900002 88.8 0 1 986.26172 -167.81641 A 5.6300001 5.0900002 88.8 0 1 991.23242 -173.55078 z "
       style="fill:#014dd0;fill-opacity:1" />
    <path
       fill="#091b44"
       d="m 220.57009,-173.8526 q 7.56,0 7.94,0 a 0.5,0.51 89.8 0 0 0.51,-0.5 v -11.73 a 0.59,0.58 85.4 0 1 0.49,-0.58 q 1.87,-0.32 3.05,0.06 a 0.56,0.57 8 0 1 0.4,0.53 q 0,0.43 -0.01,14.12 -0.01,13.7 -0.02,14.13 a 0.57,0.56 82.1 0 1 -0.39,0.53 q -1.18,0.38 -3.05,0.05 a 0.58,0.59 4.7 0 1 -0.49,-0.58 l 0.02,-11.73 a 0.51,0.5 0.3 0 0 -0.51,-0.5 q -0.39,0 -7.94,-0.01 -7.56,0 -7.94,0 a 0.5,0.51 89.8 0 0 -0.51,0.5 v 11.73 a 0.59,0.58 85.4 0 1 -0.49,0.58 q -1.87,0.32 -3.05,-0.06 a 0.56,0.57 8 0 1 -0.4,-0.53 q 0,-0.43 0.01,-14.12 0.01,-13.7 0.01,-14.13 a 0.57,0.56 82.1 0 1 0.4,-0.53 q 1.18,-0.38 3.05,-0.05 a 0.58,0.59 4.7 0 1 0.49,0.58 l -0.02,11.73 a 0.51,0.5 0.3 0 0 0.51,0.5 q 0.38,0 7.94,0.01 z"
       id="path22" />
    <rect
       fill="#091b44"
       x="334.25009"
       y="-186.7226"
       width="4.02"
       height="29.52"
       rx="0.80000001"
       id="rect22" />
    <path
       id="path23"
       d="M 796.75 -186.48242 A 1.17 1.18 11.5 0 0 795.64062 -185.74219 L 784.79102 -157.96289 A 0.52 0.52 0 0 0 785.25977 -157.24219 L 790.5293 -157.22266 A 1.04 1.05 11 0 0 791.50977 -157.88281 L 793.00977 -161.71289 A 1.21 1.2 9.2 0 1 794.06055 -162.47266 C 794.64721 -162.50599 796.48055 -162.51839 799.56055 -162.51172 C 802.64055 -162.49839 804.47388 -162.47979 805.06055 -162.45312 A 1.2 1.21 81.1 0 1 806.10938 -161.68164 L 807.58984 -157.8418 A 1.05 1.04 79.3 0 0 808.56055 -157.17188 L 813.83008 -157.17188 A 0.52 0.52 0 0 0 814.31055 -157.88281 L 803.59961 -185.72266 A 1.18 1.17 78.8 0 0 802.49023 -186.47266 C 800.6369 -186.43932 799.67914 -186.42188 799.61914 -186.42188 C 799.55914 -186.42188 798.60333 -186.44242 796.75 -186.48242 z M 799.51172 -178.91211 A 0.44 0.44 0 0 1 799.92969 -178.62305 L 803.64062 -168.72266 A 0.44 0.44 0 0 1 803.23047 -168.12305 L 795.91016 -168.08203 A 0.44 0.44 0 0 1 795.49023 -168.67188 L 799.09961 -178.61328 A 0.44 0.44 0 0 1 799.51172 -178.91211 z "
       style="fill:#014dd0;fill-opacity:1" />
    <path
       fill="#014dd0"
       d="m 939.94009,-178.6326 q 0.99,0.02 1.64,0.19 a 0.92,0.92 0 0 0 1.15,-0.89 v -4.27 a 0.91,0.91 0 0 1 0.91,-0.91 h 4.13 a 0.99,0.98 0 0 1 0.99,0.98 v 4.3 a 0.62,0.62 0 0 0 0.62,0.62 h 3.42 a 0.85,0.85 0 0 1 0.85,0.85 v 3.75 a 0.88,0.89 0 0 1 -0.88,0.89 h -3.36 a 0.65,0.66 0.4 0 0 -0.65,0.65 q -0.08,5.19 0.08,7.7 0.15,2.25 3.89,2.1 a 0.92,0.92 0 0 1 0.96,0.92 v 3.67 a 0.96,0.96 0 0 1 -0.85,0.95 c -12.03,1.34 -10.14,-7.2 -10.21,-15.33 a 0.64,0.64 0 0 0 -0.64,-0.63 h -1.99 a 0.62,0.63 0 0 1 -0.62,-0.63 v -4.36 a 0.55,0.55 0 0 1 0.56,-0.55 z"
       id="path24" />
    <path
       fill="#014dd0"
       d="m 839.77009,-178.0526 a 0.55,0.55 0 0 1 0.56,-0.55 q 0.99,0.02 1.64,0.19 a 0.92,0.92 0 0 0 1.16,-0.89 v -4.27 a 0.91,0.91 0 0 1 0.91,-0.91 h 4.13 a 0.99,0.98 0 0 1 0.99,0.98 l -0.01,4.3 a 0.62,0.62 0 0 0 0.62,0.62 h 3.42 a 0.85,0.85 0 0 1 0.85,0.85 v 3.75 a 0.88,0.89 0 0 1 -0.88,0.89 h -3.36 a 0.65,0.66 0.5 0 0 -0.65,0.65 q -0.08,5.19 0.08,7.7 0.15,2.25 3.89,2.1 a 0.92,0.92 0 0 1 0.96,0.92 v 3.67 a 0.96,0.96 0 0 1 -0.85,0.95 c -12.03,1.34 -10.14,-7.2 -10.21,-15.33 a 0.64,0.64 0 0 0 -0.64,-0.63 h -1.99 a 0.62,0.63 0 0 1 -0.62,-0.63 z"
       id="path25" />
    <path
       fill="#091b44"
       d="m 348.62009,-176.1826 a 0.32,0.32 0 0 0 0.55,0.22 c 5.51,-5.89 14.84,-2.81 14.92,5.67 q 0.09,9.24 0.07,12.22 a 0.96,0.96 0 0 1 -0.96,0.96 h -2 a 0.98,0.97 0.3 0 1 -0.98,-0.98 q 0.06,-10.61 0.06,-10.8 c -0.05,-9.08 -10.98,-7.94 -11.39,-0.52 q -0.15,2.64 -0.03,11.27 a 1,1.01 89.4 0 1 -1.01,1.02 h -1.92 a 1.02,1.01 0 0 1 -1.02,-1.01 v -19.62 a 0.82,0.82 0 0 1 0.65,-0.8 q 1.11,-0.22 2.52,-0.04 a 0.62,0.63 3.7 0 1 0.54,0.62 z"
       id="path26" />
    <path
       fill="#091b44"
       d="m 384.92009,-175.0626 a 1.07,1.07 0 0 1 -0.35,1.54 l -1.09,0.64 a 1.57,1.56 55.5 0 1 -1.99,-0.37 q -2.85,-3.52 -7.48,-1.43 a 1.96,2.16 60.4 0 0 -1,3.04 q 0.77,1.07 2.34,1.39 5.36,1.1 6.91,1.82 c 4.07,1.91 4.63,6.25 1.68,9.34 q -1.89,1.98 -5.65,2.24 -6.23,0.43 -9.65,-4.04 a 1.16,1.15 60.8 0 1 0.5,-1.78 l 1.01,-0.39 a 2.05,2.03 59.6 0 1 2.31,0.61 q 3.1,3.78 8.24,1.52 a 1.97,2.3 67.2 0 0 1.33,-2.65 q -0.6,-1.56 -2.42,-1.94 -4.59,-0.96 -6.6,-1.82 c -5.22,-2.26 -5.6,-7.69 -0.84,-10.44 3.99,-2.29 10.16,-1.1 12.75,2.72 z"
       id="path27" />
    <path
       fill="#091b44"
       d="m 417.99009,-175.8226 a 0.3,0.3 0 0 0 0.53,0.2 q 2.94,-3.49 7.28,-3.2 a 0.61,0.61 0 0 1 0.57,0.61 v 2.68 a 0.6,0.6 0 0 1 -0.68,0.6 c -5.84,-0.77 -7.89,3.14 -7.56,8.67 q 0.06,1.06 0.02,8 a 1.11,1.11 0 0 1 -1.11,1.1 h -1.45 a 1.09,1.09 0 0 1 -1.09,-1.09 v -19.54 a 0.8,0.81 0 0 1 0.8,-0.81 h 1.89 a 0.8,0.8 0 0 1 0.8,0.8 z"
       id="path28" />
    <path
       id="path29"
       d="M 438.94336 -178.90039 C 435.75836 -178.97789 432.91039 -177.64258 430.40039 -174.89258 A 0.96 0.96 0 0 0 430.65039 -173.39258 L 432.10938 -172.58203 A 1.29 1.3 33.6 0 0 433.75977 -172.92188 C 437.04977 -177.16188 443.25 -176.25227 444 -170.57227 A 0.82 0.82 0 0 1 443.10938 -169.65234 C 438.24937 -170.05234 430.80063 -170.36234 429.39062 -164.65234 C 428.84062 -162.45234 429.78031 -159.56266 431.57031 -158.47266 C 435.99698 -155.78599 440.01753 -156.20266 443.63086 -159.72266 A 0.27 0.27 0 0 1 444.08008 -159.5332 L 444.08008 -158.02344 A 0.72 0.74 4.5 0 0 444.68945 -157.29297 C 445.77612 -157.11297 446.60016 -157.10987 447.16016 -157.2832 A 0.76 0.76 0 0 0 447.69922 -157.98242 C 447.85255 -163.23576 447.83706 -167.71211 447.65039 -171.41211 C 447.47039 -175.01878 445.6669 -177.33352 442.24023 -178.35352 C 441.10357 -178.69352 440.00503 -178.87456 438.94336 -178.90039 z M 439.11914 -166.74219 C 440.31247 -166.75552 441.71055 -166.71638 443.31055 -166.62305 A 0.59 0.59 0 0 1 443.86914 -165.98242 C 443.48914 -161.81242 440.48094 -159.47305 436.46094 -160.12305 C 432.03094 -160.83305 431.91039 -165.90297 436.15039 -166.54297 C 436.93706 -166.66297 437.92581 -166.72885 439.11914 -166.74219 z " />
    <path
       fill="#091b44"
       d="m 456.87009,-176.1626 a 0.32,0.32 0 0 0 0.54,0.22 c 5.47,-5.87 14.75,-2.82 14.84,5.61 q 0.11,9.19 0.09,12.15 a 0.95,0.95 0 0 1 -0.95,0.96 h -1.99 a 0.97,0.96 0.2 0 1 -0.98,-0.97 q 0.05,-10.55 0.05,-10.74 c -0.06,-9.03 -10.93,-7.88 -11.33,-0.5 q -0.14,2.62 -0.01,11.2 a 0.99,1 89.4 0 1 -1,1.02 h -1.91 a 1,1.01 89.9 0 1 -1.02,-1 l -0.02,-19.51 a 0.81,0.82 83.8 0 1 0.64,-0.79 q 1.1,-0.22 2.51,-0.05 a 0.62,0.62 0 0 1 0.53,0.62 z"
       id="path30" />
    <path
       fill="#091b44"
       d="m 480.56009,-167.8226 c -0.02,6.8 7.84,10.66 11.91,4.58 a 1.34,1.34 0 0 1 1.59,-0.52 l 1.72,0.63 a 0.96,0.95 26.9 0 1 0.46,1.42 c -5.97,9.17 -19.59,5.19 -19.57,-6.12 0.03,-11.31 13.65,-15.24 19.6,-6.04 a 0.95,0.96 63.3 0 1 -0.47,1.41 l -1.73,0.63 a 1.34,1.34 0 0 1 -1.58,-0.53 c -4.05,-6.09 -11.92,-2.26 -11.93,4.54 z"
       id="path31" />
    <path
       id="path32"
       d="M 510.86133 -178.88086 C 506.125 -179.06754 501.2582 -176.19688 500.40039 -169.95312 C 499.28039 -161.81312 504.26961 -156.00203 512.34961 -156.83203 C 515.00294 -157.0987 517.33008 -158.45568 519.33008 -160.90234 A 0.89 0.89 0 0 0 519.00977 -162.27344 L 517.64062 -162.89258 A 1.48 1.48 0 0 0 515.96094 -162.5625 C 511.81094 -158.1725 506.11 -160.18297 504.25 -165.54297 A 0.73 0.73 0 0 1 504.93945 -166.51172 L 519.96094 -166.51172 A 0.47 0.47 0 0 0 520.42969 -166.92188 C 521.42844 -174.52937 516.22917 -178.66928 510.86133 -178.88086 z M 510.42969 -175.36328 L 510.58984 -175.36328 A 5.44 5.94 89.7 0 1 516.55078 -169.95312 L 516.55078 -169.86328 A 0.11 0.11 0 0 1 516.43945 -169.75195 L 504.61914 -169.69336 A 0.11 0.11 0 0 1 504.50977 -169.80273 L 504.50977 -169.89258 A 5.44 5.94 89.7 0 1 510.42969 -175.36328 z " />
    <path
       id="path33"
       d="M 577.75 -178.94531 A 11.13 10.88 85.5 0 0 576.32617 -178.92773 A 11.13 10.88 85.5 0 0 566.35352 -166.97852 A 11.13 10.88 85.5 0 0 578.07422 -156.73633 A 11.13 10.88 85.5 0 0 588.04688 -168.68555 A 11.13 10.88 85.5 0 0 577.75 -178.94531 z M 577.60938 -175.30664 A 6.8200002 7.5100002 2.2 0 1 584.13477 -167.54102 A 6.8200002 7.5100002 2.2 0 1 577.03125 -160.29883 A 6.8200002 7.5100002 2.2 0 1 570.50586 -168.06445 A 6.8200002 7.5100002 2.2 0 1 577.60938 -175.30664 z " />
    <path
       fill="#091b44"
       d="m 596.77009,-176.2026 c 0.67,-0.52 1.14,-1.3 1.86,-1.65 q 6.21,-3.03 9.76,2.46 a 0.46,0.45 46.3 0 0 0.76,0.02 q 3.05,-4.3 8.38,-3.32 c 5.09,0.94 6.05,6.14 5.93,10.52 q -0.05,1.88 -0.14,10.05 a 0.93,0.94 0.3 0 1 -0.93,0.93 h -2.08 a 0.85,0.85 0 0 1 -0.85,-0.85 v -12.86 a 4.25,4.25 0 0 0 -4.6,-4.24 l -0.53,0.04 a 4.93,4.93 0 0 0 -4.53,4.91 v 12.16 a 0.85,0.85 0 0 1 -0.85,0.85 h -2.13 a 0.84,0.84 0 0 1 -0.84,-0.84 v -13.14 a 4.07,4.07 0 0 0 -4.7,-4.02 l -0.49,0.07 a 5.08,5.07 85.6 0 0 -4.29,5.02 v 12.24 a 0.72,0.72 0 0 1 -0.72,0.72 h -2.44 a 0.81,0.81 0 0 1 -0.81,-0.81 v -20.05 a 0.66,0.66 0 0 1 0.66,-0.66 h 2.42 a 0.66,0.65 0 0 1 0.66,0.65 v 1.55 a 0.31,0.31 0 0 0 0.5,0.25 z"
       id="path34" />
    <path
       id="path35"
       d="M 640.13867 -178.89453 C 637.47648 -178.95286 635.15326 -177.9281 633.16992 -175.82227 A 0.31 0.32 66.2 0 1 632.61914 -176.0332 L 632.61914 -178.01172 A 0.6 0.6 0 0 0 632.01953 -178.61328 L 629.76953 -178.61328 A 0.82 0.82 0 0 0 628.94922 -177.79297 L 628.94922 -149.44336 A 1.15 1.14 0 0 0 630.09961 -148.30273 L 631.7207 -148.30273 A 1.01 1.01 0 0 0 632.73047 -149.3125 L 632.73047 -159.62305 A 0.24 0.24 0 0 1 633.13086 -159.80273 C 635.93753 -157.2094 638.88404 -156.26599 641.9707 -156.97266 C 652.7007 -159.41266 652.43078 -177.32273 641.30078 -178.80273 C 640.90661 -178.85523 640.51898 -178.8862 640.13867 -178.89453 z M 639.71094 -175.32812 A 6.6700001 7.5500002 3.5 0 1 645.9082 -167.38477 A 6.6700001 7.5500002 3.5 0 1 638.78906 -160.25586 A 6.6700001 7.5500002 3.5 0 1 632.5918 -168.19922 A 6.6700001 7.5500002 3.5 0 1 639.71094 -175.32812 z " />
    <path
       id="path36"
       d="M 681.56836 -178.94531 C 678.36836 -179.02406 675.50547 -177.68188 672.98047 -174.92188 A 0.97 0.97 0 0 0 673.23047 -173.42188 L 674.69922 -172.60352 A 1.3 1.31 33.6 0 0 676.35938 -172.94336 C 679.65937 -177.20336 685.89062 -176.28203 686.64062 -170.58203 A 0.82 0.83 88.6 0 1 685.75 -169.65234 C 680.87 -170.06234 673.38094 -170.37258 671.96094 -164.64258 C 671.41094 -162.43258 672.35039 -159.53164 674.15039 -158.43164 C 678.59706 -155.73164 682.6331 -156.14831 686.25977 -159.68164 A 0.27 0.27 0 0 1 686.7207 -159.49219 L 686.7207 -157.97266 A 0.73 0.74 4.6 0 0 687.33008 -157.24219 C 688.41674 -157.06219 689.24388 -157.05909 689.81055 -157.23242 A 0.76 0.77 82.4 0 0 690.34961 -157.93164 C 690.50961 -163.21164 690.49721 -167.70854 690.31055 -171.42188 C 690.13055 -175.04188 688.32086 -177.36591 684.88086 -178.39258 C 683.73919 -178.73424 682.63503 -178.91906 681.56836 -178.94531 z M 682.95898 -166.83203 C 683.96836 -166.82594 684.97539 -166.78219 685.90039 -166.74219 A 0.67 0.67 0 0 1 686.55078 -166.07227 C 686.49078 -161.11227 680.57016 -158.19203 676.66016 -161.33203 A 2.85 2.67 34.6 0 1 675.90039 -164.85352 C 676.87539 -166.54102 679.93086 -166.85031 682.95898 -166.83203 z " />
    <path
       fill="#091b44"
       d="m 699.43009,-176.2026 a 0.32,0.32 0 0 0 0.55,0.23 c 5.52,-5.84 14.8,-2.72 14.84,5.73 q 0.04,9.21 0,12.18 a 0.96,0.96 0 0 1 -0.96,0.95 l -1.99,-0.01 a 0.98,0.97 0.6 0 1 -0.98,-0.98 q 0.12,-10.58 0.12,-10.77 c 0,-9.05 -10.9,-7.97 -11.34,-0.58 q -0.17,2.63 -0.1,11.23 a 1,1.01 89.8 0 1 -1.01,1.01 l -1.91,-0.01 a 1.02,1.01 0.3 0 1 -1.01,-1.01 l 0.1,-19.55 a 0.81,0.82 84.2 0 1 0.66,-0.79 q 1.1,-0.22 2.51,-0.03 a 0.62,0.62 0 0 1 0.53,0.62 z"
       id="path37" />
    <path
       fill="#091b44"
       d="m 719.03009,-167.6926 c -0.18,-11.31 13.39,-15.48 19.5,-6.39 a 0.96,0.96 0 0 1 -0.45,1.43 l -1.71,0.65 a 1.34,1.35 62.3 0 1 -1.59,-0.49 c -4.16,-6.03 -11.97,-2.06 -11.86,4.74 0.1,6.81 8.03,10.53 12,4.38 a 1.35,1.34 25.9 0 1 1.58,-0.55 l 1.73,0.6 a 0.96,0.96 0 0 1 0.49,1.41 c -5.82,9.29 -19.51,5.54 -19.69,-5.78 z"
       id="path38" />
    <path
       id="path39"
       d="M 752.83984 -178.81641 C 748.12847 -178.97347 743.30586 -176.08867 742.49023 -169.87305 C 741.42023 -161.77305 746.41922 -156.02234 754.44922 -156.90234 C 757.08922 -157.18234 759.39581 -158.54552 761.36914 -160.99219 A 0.88 0.88 0 0 0 761.04102 -162.35352 L 759.66992 -162.95312 A 1.48 1.47 33.4 0 0 758.00977 -162.62305 C 753.89977 -158.23305 748.21984 -160.19172 746.33984 -165.51172 A 0.72 0.73 80 0 1 747.01953 -166.48242 L 761.96094 -166.57227 A 0.47 0.46 3.1 0 0 762.42969 -166.98242 C 763.37531 -174.55273 758.1794 -178.6384 752.83984 -178.81641 z M 752.49023 -175.32227 L 752.73047 -175.32227 A 5.88 5.36 0.1 0 1 758.60938 -169.95312 L 758.60938 -169.87305 A 0.12 0.12 0 0 1 758.49023 -169.75195 L 746.73047 -169.77344 A 0.12 0.12 0 0 1 746.60938 -169.89258 L 746.60938 -169.97266 A 5.88 5.36 0.1 0 1 752.49023 -175.32227 z " />
    <path
       id="path40"
       d="M 867.23047 -178.88281 A 11.09 11.09 0 0 0 856.14062 -167.79297 A 11.09 11.09 0 0 0 867.23047 -156.70312 A 11.09 11.09 0 0 0 878.32031 -167.79297 A 11.09 11.09 0 0 0 867.23047 -178.88281 z M 867.27734 -173.42188 A 5.0700002 5.5300002 0.6 0 1 872.28906 -167.83984 A 5.0700002 5.5300002 0.6 0 1 867.16211 -162.36328 A 5.0700002 5.5300002 0.6 0 1 862.15039 -167.94531 A 5.0700002 5.5300002 0.6 0 1 867.27734 -173.42188 z "
       style="fill:#014dd0;fill-opacity:1" />
    <path
       fill="#014dd0"
       d="m 899.98009,-175.9826 q 3.94,-4.16 8.43,-2.59 4.64,1.62 5.07,6.94 0.3,3.6 0.04,13.85 a 0.55,0.54 0.5 0 1 -0.55,0.53 h -4.8 a 0.58,0.58 0 0 1 -0.58,-0.58 v -12.41 a 3.1,3.1 0 0 0 -3.33,-3.09 l -0.36,0.02 a 3.45,3.44 88.3 0 0 -3.24,3.44 v 11.96 a 0.67,0.67 0 0 1 -0.67,0.67 h -4.51 a 0.78,0.78 0 0 1 -0.78,-0.78 v -12.04 a 3.22,3.22 0 0 0 -3.36,-3.22 l -0.41,0.02 a 3.43,3.44 88.8 0 0 -3.29,3.43 v 12.04 a 0.59,0.59 0 0 1 -0.59,0.59 h -4.86 a 0.57,0.57 0 0 1 -0.57,-0.57 v -20.17 a 0.64,0.64 0 0 1 0.64,-0.64 h 4.36 a 0.64,0.64 0 0 1 0.64,0.63 q 0.01,1.17 0.01,1.19 a 0.26,0.26 0 0 0 0.42,0.23 q 6.26,-5.26 11.48,0.54 a 0.55,0.55 0 0 0 0.81,0.01 z"
       id="path41" />
    <path
       id="path42"
       d="M 926.72461 -178.89062 C 923.24721 -178.76156 920.35888 -177.26258 918.06055 -174.39258 A 0.73 0.74 35.8 0 0 918.23047 -173.3125 C 919.37714 -172.5725 920.49961 -172.0663 921.59961 -171.79297 A 1.66 1.66 0 0 0 922.80078 -171.94336 C 923.69078 -172.43336 924.35977 -173.30203 925.50977 -173.58203 C 928.1031 -174.21536 929.88604 -173.33164 930.85938 -170.93164 A 0.76 0.77 83.4 0 1 930.0293 -169.89258 C 928.8293 -170.07924 926.60604 -170.07924 923.35938 -169.89258 C 916.06938 -169.48258 914.67977 -160.02242 921.25977 -157.48242 C 924.8731 -156.08909 927.98008 -156.72901 930.58008 -159.40234 A 0.38 0.38 0 0 1 931.23047 -159.13281 L 931.23047 -157.7832 A 0.62 0.62 0 0 0 931.84961 -157.16211 L 936.2207 -157.16211 A 0.55 0.55 0 0 0 936.76953 -157.70312 C 936.82286 -164.24313 936.83411 -168.47878 936.80078 -170.41211 C 936.70078 -175.19211 933.07 -178.52328 928.25 -178.86328 C 927.72917 -178.90078 927.22138 -178.90906 926.72461 -178.89062 z M 929.63086 -166.22266 A 1.21 1.21 0 0 1 930.63086 -164.42188 L 930 -163.29297 A 3.32 3.32 0 0 1 927.63086 -161.62305 C 925.26419 -161.22305 923.74055 -161.81258 923.06055 -163.39258 A 1.88 2.1 76 0 1 924.85938 -166.04297 C 926.51937 -166.22964 928.11086 -166.28932 929.63086 -166.22266 z "
       style="fill:#014dd0;fill-opacity:1" />
    <path
       id="path43"
       d="M 966.56641 -178.93555 C 962.51247 -178.84234 958.50625 -176.57531 956.82031 -171.77344 C 952.36031 -159.08344 968.96047 -151.25281 976.48047 -161.38281 A 0.84 0.84 0 0 0 976.15039 -162.64258 L 972.96094 -164.0918 A 1.44 1.45 33.6 0 0 971.30078 -163.75195 C 968.54078 -160.73195 964.03055 -161.5925 962.31055 -165.3125 A 0.6 0.61 77.5 0 1 962.85938 -166.17188 L 977.16016 -166.17188 A 0.39 0.39 0 0 0 977.55078 -166.52344 C 978.51859 -174.56281 972.49139 -179.07177 966.56641 -178.93555 z M 966.91016 -173.74219 L 967.25 -173.74219 A 3.49 4.46 89.8 0 1 971.73047 -170.27344 L 971.73047 -170.22266 A 0.12 0.12 0 0 1 971.60938 -170.10352 L 962.58984 -170.0625 A 0.12 0.12 0 0 1 962.4707 -170.18164 L 962.4707 -170.23242 A 3.49 4.46 89.8 0 1 966.91016 -173.74219 z "
       style="fill:#014dd0;fill-opacity:1" />
    <path
       fill="#091b44"
       d="m 404.29009,-159.5626 q -0.38,0.28 -0.71,0.69 c -1.78,2.17 -5.51,2.41 -7.86,1.68 q -5.42,-1.7 -5.59,-7.72 -0.16,-5.44 -0.08,-12.93 a 0.81,0.8 0 0 1 0.81,-0.8 h 2.2 a 0.84,0.84 0 0 1 0.84,0.84 q -0.05,8.22 0.11,12.37 c 0.18,4.7 4.47,6.4 8.27,4.16 2.85,-1.68 2.58,-4.83 2.6,-8.51 q 0.02,-4.2 0.04,-7.88 a 0.94,0.94 0 0 1 0.94,-0.93 h 1.97 a 0.88,0.89 0 0 1 0.88,0.89 v 19.68 a 0.79,0.79 0 0 1 -0.66,0.78 q -1.36,0.23 -2.62,-0.01 a 0.72,0.72 0 0 1 -0.59,-0.71 v -1.32 a 0.35,0.35 0 0 0 -0.55,-0.28 z"
       id="path44" />
    <rect
       fill="#091b44"
       x="663.59216"
       y="-177.42133"
       transform="rotate(-0.1)"
       width="3.8399999"
       height="21.34"
       rx="0.94999999"
       id="rect44" />
    <path
       fill="#014dd0"
       d="m 830.77009,-159.2726 q -2.69,2.23 -3.7,2.33 -9.76,0.99 -10.17,-9 -0.18,-4.53 0.06,-12 a 0.65,0.65 0 0 1 0.65,-0.63 h 4.69 a 0.57,0.57 0 0 1 0.57,0.57 v 11.84 a 3.77,3.77 0 0 0 4.01,3.76 l 0.32,-0.02 a 3.94,3.93 88.2 0 0 3.69,-3.93 v -11.64 a 0.63,0.64 0 0 1 0.63,-0.64 h 4.8 a 0.75,0.75 0 0 1 0.75,0.76 q -0.07,5.9 0,12.61 c 0.02,2.45 -0.47,4.91 -0.72,7.27 a 0.86,0.87 2.9 0 1 -0.86,0.78 h -3.2 a 0.78,0.78 0 0 1 -0.78,-0.78 v -0.93 a 0.45,0.45 0 0 0 -0.74,-0.35 z"
       id="path45" />
    <rect
       fill="#091b44"
       x="274.00391"
       y="-171.61314"
       transform="rotate(0.1)"
       width="13.82"
       height="3.3199999"
       rx="0.74000001"
       id="rect45" />
    <circle
       fill="#014dd0"
       cx="1010.8801"
       cy="-160.78259"
       r="3.9400001"
       id="circle45" />
    <circle
       fill="#091b44"
       cx="769.51013"
       cy="-159.70261"
       r="2.9000001"
       id="circle46" />
  </g>
</svg>
