<?xml version="1.0" encoding="UTF-8" standalone="no"?>
<!DOCTYPE svg PUBLIC "-//W3C//DTD SVG 1.1//EN" "http://www.w3.org/Graphics/SVG/1.1/DTD/svg11.dtd">
<svg xmlns="http://www.w3.org/2000/svg" version="1.1" viewBox="332 112 596 712">

<g>
<path fill="#001842" d="
  M 679.83 334.34
  Q 678.43 346.17 679.77 357.84
  L 679.84 379.14
  A 0.38 0.37 -7.2 0 0 680.31 379.50
  L 697.78 374.88
  A 1.53 1.48 49.1 0 1 698.80 374.97
  L 799.01 420.08
  A 0.93 0.92 12.5 0 1 799.55 420.92
  L 799.55 442.10
  A 0.51 0.51 0.0 0 1 799.17 442.59
  Q 794.64 443.85 772.37 450.40
  Q 770.61 450.92 768.87 450.13
  Q 720.40 428.21 680.34 410.81
  A 0.37 0.37 0.0 0 0 679.83 411.15
  L 679.83 453.09
  A 0.26 0.26 0.0 0 0 680.14 453.35
  L 697.69 449.77
  A 0.94 0.90 -37.8 0 1 698.28 449.83
  L 799.03 494.58
  A 0.88 0.87 -78.1 0 1 799.55 495.38
  L 799.55 514.44
  A 0.81 0.80 -8.2 0 1 798.97 515.21
  L 770.01 523.87
  A 2.64 2.61 48.0 0 1 768.26 523.77
  L 680.39 486.03
  A 0.42 0.41 11.7 0 0 679.81 486.41
  L 679.81 544.13
  A 0.58 0.58 0.0 0 1 679.23 544.71
  L 658.59 544.71
  A 0.42 0.42 0.0 0 1 658.17 544.29
  L 658.17 294.91
  A 0.33 0.33 0.0 0 1 658.64 294.61
  L 728.66 325.71
  A 0.44 0.43 -78.1 0 0 729.27 325.31
  L 729.27 217.92
  A 0.41 0.39 17.4 0 0 729.09 217.59
  L 635.33 155.21
  A 0.49 0.48 -73.5 0 0 634.58 155.62
  L 634.58 572.25
  A 0.41 0.41 0.0 0 1 634.17 572.66
  L 614.11 572.66
  A 0.45 0.44 -90.0 0 1 613.67 572.21
  L 613.67 157.86
  A 0.48 0.48 0.0 0 0 612.93 157.45
  L 517.82 217.82
  A 0.60 0.58 74.5 0 0 517.55 218.32
  L 517.55 685.36
  A 0.77 0.77 0.0 0 0 518.32 686.13
  L 544.88 686.13
  A 0.67 0.66 -90.0 0 0 545.54 685.46
  L 545.54 609.64
  A 0.44 0.43 0.0 0 1 545.98 609.21
  L 670.93 609.21
  A 0.33 0.33 0.0 0 1 671.26 609.54
  L 671.26 723.70
  A 0.68 0.67 0.0 0 0 671.94 724.37
  L 706.30 724.37
  A 0.81 0.80 0.4 0 0 707.11 723.58
  L 707.28 713.26
  L 707.87 712.98
  A 0.78 0.77 -12.9 0 1 708.98 713.67
  L 708.98 723.70
  A 0.56 0.56 0.0 0 0 709.61 724.26
  L 712.87 723.84
  A 1.30 1.29 57.6 0 1 713.74 724.04
  Q 715.26 725.04 714.82 726.52
  C 686.65 745.81 656.94 762.92 626.92 779.11
  A 0.92 0.92 0.0 0 1 626.04 779.11
  Q 620.20 776.04 608.02 769.46
  Q 574.43 751.33 543.36 730.63
  Q 515.10 711.80 491.69 690.17
  C 473.23 673.11 457.72 653.12 442.87 632.48
  A 1.82 1.80 27.8 0 1 442.54 631.44
  L 442.54 454.18
  A 0.77 0.76 -11.8 0 1 443.00 453.48
  L 496.39 431.05
  A 0.87 0.86 78.9 0 0 496.92 430.25
  L 496.92 207.77
  A 1.83 1.83 0.0 0 1 497.75 206.24
  L 626.15 124.75
  A 0.81 0.80 45.3 0 1 627.03 124.76
  L 749.91 206.50
  A 0.71 0.68 17.8 0 1 750.22 207.07
  L 750.22 335.29
  A 1.04 1.04 0.0 0 0 750.82 336.23
  L 799.13 358.45
  A 0.71 0.71 0.0 0 1 799.55 359.10
  L 799.55 372.37
  A 0.88 0.87 82.8 0 1 798.90 373.22
  L 779.78 378.28
  A 0.79 0.77 -38.8 0 1 779.28 378.23
  L 680.56 332.83
  A 0.47 0.46 23.2 0 0 679.93 333.08
  Q 679.76 333.52 679.83 334.34
  Z"
/>
<rect fill="#001842" x="-15.31" y="-20.63" transform="translate(566.60,261.17) rotate(0.1)" width="30.62" height="41.26" rx="0.53"/>
<path fill="#014ac5" d="
  M 626.56 830.30
  Q 627.00 830.18 627.00 829.75
  Q 627.02 815.86 627.02 801.67
  Q 634.23 797.79 641.58 794.31
  Q 645.86 792.28 684.79 770.64
  A 0.07 0.04 -55.1 0 0 684.80 770.53
  Q 684.76 770.54 684.64 770.46
  A 0.07 0.05 -23.9 0 1 684.70 770.37
  Q 685.41 770.23 686.10 769.82
  Q 713.12 754.00 738.46 735.94
  Q 741.91 733.47 746.22 730.26
  Q 785.61 700.85 813.71 665.22
  Q 817.89 659.90 824.87 650.02
  Q 830.23 642.42 835.13 634.19
  Q 863.42 586.69 872.88 531.42
  Q 876.62 509.58 876.62 487.96
  Q 876.63 423.98 876.41 348.70
  A 0.57 0.57 0.0 0 0 876.07 348.18
  L 780.32 306.33
  A 0.96 0.95 -78.3 0 1 779.75 305.45
  L 779.75 277.71
  A 0.38 0.38 0.0 0 1 780.29 277.36
  L 900.64 329.96
  A 1.14 1.14 0.0 0 1 901.32 331.00
  Q 901.33 422.51 901.75 477.96
  C 901.96 505.70 901.14 527.08 896.23 550.76
  C 891.66 572.80 883.99 595.50 874.07 616.78
  Q 849.91 668.56 809.60 709.85
  Q 785.26 734.78 755.86 755.59
  Q 731.70 772.69 709.32 786.03
  Q 668.46 810.39 627.40 830.63
  Q 626.86 830.90 626.56 830.30
  Z"
/>
<path fill="#001842" d="
  M 470.76 281.14
  L 470.85 309.97
  L 373.86 349.54
  A 0.47 0.46 78.6 0 0 373.58 349.97
  Q 373.61 429.67 373.54 447.97
  Q 373.36 493.06 374.00 502.52
  C 378.99 575.58 413.92 644.92 466.42 695.45
  Q 493.35 721.38 526.55 743.70
  Q 548.84 758.69 570.03 770.97
  Q 598.22 787.30 627.02 801.67
  Q 627.02 815.86 627.00 829.75
  Q 627.00 830.18 626.56 830.30
  Q 616.81 825.77 613.13 823.86
  Q 585.99 809.82 557.96 793.80
  Q 533.51 779.83 509.02 763.47
  Q 474.41 740.36 445.27 712.03
  Q 413.85 681.49 388.59 639.13
  Q 380.76 625.99 373.58 609.75
  Q 365.87 592.31 361.57 578.97
  Q 354.91 558.27 351.18 536.79
  Q 348.72 522.64 347.82 509.15
  Q 347.04 497.38 347.11 481.32
  Q 347.13 477.52 347.17 331.33
  A 0.79 0.77 -11.3 0 1 347.66 330.61
  L 461.28 284.68
  A 0.01 0.01 0.0 0 0 461.27 284.66
  Q 460.74 284.54 460.70 284.58
  A 0.03 0.03 0.0 0 0 460.73 284.63
  L 470.76 281.14
  Z"
/>
<path fill="#02966c" d="
  M 470.85 309.97
  L 470.76 281.14
  L 470.85 309.97
  Z"
/>
<rect fill="#001842" x="-15.31" y="-20.37" transform="translate(566.54,335.00) rotate(-0.1)" width="30.62" height="40.74" rx="0.45"/>
<path fill="#02966c" d="
  M 679.83 334.34
  Q 680.36 345.23 680.13 355.88
  Q 680.10 356.90 680.06 355.88
  Q 679.98 353.77 679.94 351.66
  A 0.04 0.03 -90.0 0 0 679.91 351.62
  Q 679.90 351.62 679.89 351.62
  A 0.03 0.01 90.0 0 0 679.88 351.65
  L 679.77 357.84
  Q 678.43 346.17 679.83 334.34
  Z"
/>
<rect fill="#001842" x="551.21" y="388.91" width="30.62" height="39.56" rx="0.70"/>
<rect fill="#001842" x="551.25" y="461.93" width="30.62" height="39.68" rx="0.66"/>
<path fill="#02966c" d="
  M 752.27 605.04
  L 748.02 601.12
  A 1.56 1.55 -44.3 0 0 745.93 601.10
  L 743.32 603.43
  Q 743.15 602.86 741.84 603.39
  Q 730.80 607.91 723.16 613.94
  Q 719.90 616.51 718.26 618.41
  A 0.52 0.51 -24.8 0 1 717.35 618.08
  L 717.35 611.65
  A 0.61 0.60 -34.2 0 0 716.18 611.43
  L 711.38 623.43
  A 1.55 1.52 78.3 0 1 711.07 623.91
  L 703.19 632.11
  A 0.46 0.46 0.0 0 1 702.41 631.70
  L 704.08 623.26
  A 0.48 0.48 0.0 0 0 703.18 622.96
  L 700.19 629.14
  A 1.41 0.40 -72.8 0 1 700.11 629.27
  Q 695.49 635.74 691.69 643.66
  Q 691.28 644.51 690.74 646.32
  A 0.72 0.72 0.0 0 1 689.34 646.26
  C 685.63 628.53 690.18 607.76 705.41 596.65
  Q 711.17 592.45 717.36 589.97
  A 2.75 2.66 -56.5 0 1 718.27 589.77
  C 719.96 589.71 721.36 588.96 723.32 588.61
  Q 729.34 587.53 735.04 587.68
  A 0.44 0.44 0.0 0 0 735.18 586.81
  L 721.71 582.77
  A 0.62 0.61 16.8 0 1 721.29 582.00
  L 721.55 581.13
  A 0.55 0.55 0.0 0 0 720.87 580.44
  L 713.41 582.55
  A 1.74 1.12 23.7 0 1 713.09 582.60
  L 701.50 582.91
  A 1.17 1.17 0.0 0 1 700.64 580.92
  L 705.98 575.58
  A 0.50 0.50 0.0 0 0 705.45 574.76
  L 691.16 580.21
  A 1.80 1.80 0.0 0 1 690.54 580.32
  L 687.15 580.32
  A 0.70 0.70 0.0 0 1 686.54 579.27
  Q 687.61 577.38 689.08 576.15
  A 0.48 0.48 0.0 0 0 688.84 575.31
  Q 687.47 575.12 685.98 575.74
  Q 679.60 578.41 670.22 581.34
  A 0.38 0.38 0.0 0 1 669.78 580.78
  Q 676.24 570.18 686.73 563.86
  Q 695.45 558.62 703.92 557.73
  C 718.45 556.22 730.95 561.21 741.50 571.27
  Q 741.85 571.60 742.34 571.71
  A 0.32 0.32 0.0 0 0 742.70 571.26
  Q 740.23 566.28 735.76 562.05
  A 0.70 0.70 0.0 0 1 736.15 560.85
  L 738.30 560.58
  A 0.47 0.47 0.0 0 0 738.35 559.65
  Q 730.22 557.69 725.40 551.04
  A 0.58 0.58 0.0 0 1 725.80 550.12
  L 731.21 549.43
  A 0.62 0.62 0.0 0 0 731.43 548.27
  L 728.74 546.84
  A 2.50 2.33 61.1 0 0 728.01 546.60
  Q 726.21 546.35 722.08 545.14
  Q 718.70 544.14 716.35 541.22
  A 0.47 0.46 70.5 0 1 716.71 540.46
  L 721.07 540.46
  A 0.44 0.44 0.0 0 0 721.25 539.62
  L 716.03 537.38
  A 0.80 0.62 52.0 0 0 715.83 537.33
  Q 710.47 537.18 705.56 533.33
  A 0.52 0.52 0.0 0 1 705.99 532.42
  C 707.02 532.64 707.62 532.05 708.39 531.85
  Q 723.33 527.94 736.95 533.78
  Q 740.00 535.10 745.45 539.58
  C 754.15 546.74 758.57 558.23 758.64 569.52
  A 0.35 0.35 0.0 0 0 759.29 569.68
  Q 765.34 558.34 776.95 552.78
  Q 794.47 544.39 811.76 553.05
  Q 821.38 557.88 827.64 565.97
  A 0.40 0.40 0.0 0 1 827.27 566.61
  C 825.11 566.27 823.15 566.33 820.76 565.75
  Q 818.16 565.12 809.68 562.97
  A 0.19 0.19 0.0 0 0 809.48 563.25
  L 811.69 566.75
  A 0.38 0.38 0.0 0 1 811.42 567.33
  C 808.18 567.72 806.61 567.89 803.10 566.70
  Q 799.55 565.49 795.48 565.13
  A 0.58 0.58 0.0 0 0 795.18 566.24
  Q 797.54 567.35 798.74 569.03
  A 0.54 0.53 62.9 0 1 798.48 569.85
  L 791.16 572.32
  A 1.69 1.60 34.0 0 1 790.62 572.41
  Q 786.21 572.27 782.27 570.62
  A 0.60 0.60 0.0 0 0 781.50 571.44
  Q 781.77 572.02 781.88 572.71
  A 0.83 0.82 71.0 0 1 781.47 573.56
  L 772.79 578.58
  A 0.32 0.31 23.7 0 0 773.02 579.16
  Q 778.32 578.03 786.15 578.20
  Q 793.16 578.35 799.01 580.69
  Q 815.78 587.41 823.01 605.18
  Q 825.07 610.25 825.76 615.17
  A 0.38 0.38 0.0 0 1 825.14 615.52
  L 809.65 603.13
  A 0.24 0.24 0.0 0 0 809.27 603.40
  Q 810.64 607.27 810.28 610.01
  A 0.46 0.46 0.0 0 1 809.61 610.37
  Q 804.07 607.48 802.35 605.54
  Q 798.11 600.78 794.45 597.23
  A 0.35 0.35 0.0 0 0 793.87 597.55
  L 795.01 603.10
  A 0.42 0.42 0.0 0 1 794.41 603.55
  C 791.72 602.17 789.10 601.58 786.33 599.91
  Q 779.13 595.57 770.66 595.77
  A 0.33 0.33 0.0 0 0 770.53 596.41
  Q 776.50 598.99 781.11 603.97
  Q 797.38 621.55 792.68 645.04
  C 791.46 651.15 788.69 657.27 786.00 662.52
  Q 785.59 663.32 784.70 664.04
  A 0.55 0.55 0.0 0 1 783.81 663.69
  L 781.40 644.69
  A 0.36 0.36 0.0 0 0 780.75 644.54
  L 778.46 647.98
  A 0.92 0.92 0.0 0 1 776.77 647.47
  L 776.77 631.90
  A 0.28 0.28 0.0 0 0 776.26 631.74
  L 773.36 636.11
  A 0.75 0.75 0.0 0 1 772.05 635.99
  Q 770.73 632.90 768.20 627.51
  Q 767.55 626.13 767.66 621.75
  Q 767.75 617.86 766.37 614.81
  A 0.49 0.49 0.0 0 0 765.44 614.92
  L 764.58 619.26
  A 0.62 0.61 -53.8 0 1 763.44 619.44
  Q 758.64 610.68 752.27 605.04
  Z"
/>
<path fill="#02524b" d="
  M 752.27 605.04
  Q 744.36 621.68 742.10 628.13
  Q 736.04 645.38 732.34 662.30
  Q 729.65 674.63 728.73 691.25
  C 728.35 698.25 729.34 704.66 729.59 712.29
  A 2.18 2.13 32.3 0 0 729.80 713.17
  Q 730.18 713.97 730.20 714.63
  A 1.03 1.02 70.8 0 1 729.79 715.49
  L 714.82 726.52
  Q 715.26 725.04 713.74 724.04
  A 1.30 1.29 57.6 0 0 712.87 723.84
  L 709.61 724.26
  A 0.56 0.56 0.0 0 1 708.98 723.70
  L 708.98 713.67
  A 0.78 0.77 -12.9 0 0 707.87 712.98
  L 707.28 713.26
  Q 707.50 698.52 710.59 684.06
  Q 716.42 656.84 724.80 638.00
  Q 730.19 625.89 738.53 611.01
  Q 741.31 606.06 743.32 603.43
  L 745.93 601.10
  A 1.56 1.55 -44.3 0 1 748.02 601.12
  L 752.27 605.04
  Z"
/>
<path fill="#001842" d="
  M 479.39 968.18
  A 0.27 0.27 0.0 0 0 478.90 968.01
  C 470.38 979.04 457.27 983.14 443.55 981.59
  C 423.72 979.34 409.68 964.87 404.95 945.64
  C 399.25 922.51 407.95 894.30 432.10 884.93
  Q 449.78 878.08 466.60 885.58
  Q 474.07 888.91 478.70 895.10
  A 0.36 0.36 0.0 0 0 479.35 894.89
  L 479.35 847.46
  A 0.56 0.56 0.0 0 1 479.91 846.90
  L 503.19 846.90
  A 0.39 0.39 0.0 0 1 503.58 847.29
  L 503.58 979.23
  A 0.44 0.43 90.0 0 1 503.15 979.67
  L 480.06 979.67
  A 0.68 0.67 -90.0 0 1 479.39 978.99
  L 479.39 968.18
  Z"
/>
<circle fill="#014ac5" cx="681.61" cy="860.80" r="13.74"/>
<path fill="#001842" d="
  M 239.24 881.72
  C 274.09 881.41 296.91 912.66 288.19 946.01
  C 282.43 968.02 262.55 981.85 240.13 982.05
  C 217.71 982.25 197.58 968.77 191.44 946.86
  C 182.12 913.68 204.39 882.03 239.24 881.72
  Z"
/>
<path fill="#001842" d="
  M 116.20 928.09
  Q 114.69 931.64 116.20 935.21
  Q 116.73 939.24 117.93 942.54
  Q 122.32 954.57 134.71 958.53
  Q 137.52 959.74 140.56 959.48
  Q 155.34 959.18 163.67 946.67
  A 0.78 0.78 0.0 0 1 164.77 946.46
  L 182.03 958.71
  A 0.81 0.81 0.0 0 1 182.25 959.82
  Q 171.00 977.15 150.69 981.10
  Q 146.40 981.93 138.72 981.77
  C 118.09 981.34 99.05 967.08 93.94 946.61
  Q 90.76 933.90 93.05 920.77
  Q 94.67 911.47 99.76 903.82
  Q 112.40 884.85 135.50 882.12
  Q 151.18 880.27 164.45 887.56
  Q 175.98 893.90 182.29 905.05
  A 0.68 0.68 0.0 0 1 182.08 905.95
  L 164.83 917.55
  A 0.97 0.97 0.0 0 1 163.47 917.27
  Q 156.70 906.62 144.81 904.64
  Q 139.69 903.79 133.11 905.96
  C 123.41 909.16 117.41 917.94 116.20 928.09
  Z"
/>
<path fill="#001842" d="
  M 516.38 932.30
  C 516.19 909.99 529.61 889.95 551.41 883.83
  C 584.45 874.56 615.95 896.73 616.26 931.42
  C 616.57 966.12 585.46 988.83 552.27 980.15
  C 530.35 974.42 516.58 954.62 516.38 932.30
  Z"
/>
<path fill="#001842" d="
  M 327.51 895.11
  C 328.60 894.11 329.05 893.06 330.25 891.81
  Q 339.51 882.08 354.23 882.12
  C 370.57 882.16 383.56 890.65 388.04 906.20
  Q 390.34 914.21 390.35 921.00
  Q 390.38 952.04 390.32 979.32
  A 0.38 0.38 0.0 0 1 389.94 979.70
  L 366.80 979.70
  A 0.29 0.28 -0.0 0 1 366.51 979.42
  Q 366.64 959.84 366.46 926.02
  Q 366.43 921.80 365.14 917.60
  Q 362.18 907.97 352.95 905.39
  Q 349.32 904.38 342.03 905.40
  A 4.45 4.05 -57.2 0 0 341.05 905.66
  Q 332.10 909.37 328.67 917.96
  Q 326.92 922.35 327.03 934.24
  Q 327.16 948.92 326.97 979.06
  A 0.63 0.63 0.0 0 1 326.34 979.69
  L 304.14 979.69
  A 0.50 0.50 0.0 0 1 303.64 979.19
  L 303.64 884.80
  A 0.39 0.39 0.0 0 1 304.03 884.41
  L 326.34 884.41
  A 0.69 0.69 0.0 0 1 327.03 885.10
  L 327.03 894.91
  A 0.29 0.28 -21.7 0 0 327.51 895.11
  Z"
/>
<path fill="#014ac5" d="
  M 736.55 895.60
  A 0.24 0.24 0.0 0 0 736.98 895.75
  Q 743.88 886.44 755.76 883.45
  Q 762.55 881.74 769.34 882.52
  Q 787.15 884.57 795.53 899.80
  Q 800.18 908.28 800.27 920.27
  Q 800.46 946.15 800.26 979.30
  A 0.37 0.37 0.0 0 1 799.89 979.67
  L 776.99 979.67
  A 0.87 0.87 0.0 0 1 776.12 978.80
  Q 776.32 942.61 776.29 926.26
  Q 776.29 923.79 775.58 919.95
  C 773.51 908.78 764.08 903.28 753.30 905.55
  C 740.00 908.34 736.89 919.18 736.87 931.42
  Q 736.86 943.73 736.89 979.11
  A 0.58 0.58 0.0 0 1 736.31 979.69
  L 713.76 979.69
  A 0.87 0.87 0.0 0 1 712.89 978.82
  L 712.89 885.49
  A 0.89 0.89 0.0 0 1 713.78 884.60
  L 736.02 884.60
  A 0.53 0.53 0.0 0 1 736.55 885.13
  L 736.55 895.60
  Z"
/>
<path fill="#014ac5" d="
  M 1161.52 964.85
  A 0.30 0.30 0.0 0 1 1161.53 965.27
  Q 1157.06 970.17 1151.15 973.95
  C 1139.74 981.25 1124.73 983.03 1111.49 981.19
  Q 1102.08 979.87 1093.61 974.60
  C 1076.31 963.81 1068.84 944.93 1071.35 924.93
  C 1074.54 899.60 1094.88 882.17 1120.26 882.31
  C 1137.15 882.39 1152.16 890.75 1159.93 905.77
  Q 1164.47 914.56 1165.35 923.94
  Q 1165.90 929.82 1165.55 939.13
  A 0.57 0.56 -88.9 0 1 1164.99 939.68
  L 1096.53 939.68
  A 0.51 0.50 -4.4 0 0 1096.03 940.26
  Q 1097.35 949.28 1105.12 955.39
  C 1111.03 960.05 1117.26 961.11 1124.71 960.75
  Q 1137.13 960.14 1146.37 951.03
  A 0.95 0.95 0.0 0 1 1147.71 951.04
  L 1161.52 964.85
  Z"
/>
<path fill="#014ac5" d="
  M 825.14 950.14
  Q 826.42 950.96 830.07 953.68
  Q 840.28 961.31 854.00 961.44
  C 858.81 961.48 866.14 960.03 868.13 955.56
  C 870.36 950.56 866.96 946.54 862.13 944.64
  Q 857.46 942.80 844.57 940.19
  Q 832.25 937.70 824.32 930.60
  C 815.58 922.77 815.36 908.54 820.67 898.57
  C 823.98 892.36 831.78 886.78 838.38 884.95
  C 843.58 883.50 848.70 882.53 854.61 882.62
  Q 874.67 882.89 890.28 895.57
  A 0.74 0.74 0.0 0 1 890.43 896.55
  L 880.00 912.24
  A 0.69 0.68 -47.0 0 1 878.89 912.28
  Q 878.40 911.63 876.55 910.46
  Q 866.78 904.21 855.50 903.33
  Q 851.87 903.05 848.73 903.70
  C 843.06 904.87 838.60 909.02 842.25 915.01
  A 3.66 3.65 -88.8 0 0 843.38 916.19
  Q 846.41 918.20 850.31 919.19
  Q 857.50 921.01 867.89 923.84
  C 881.53 927.56 892.07 934.97 892.82 950.01
  Q 893.63 966.00 880.94 974.71
  C 869.26 982.74 852.57 983.01 838.97 980.33
  C 832.61 979.08 827.26 976.59 821.15 973.36
  Q 816.21 970.75 812.82 967.61
  A 0.71 0.70 39.0 0 1 812.72 966.69
  L 824.35 950.29
  A 0.59 0.58 34.0 0 1 825.14 950.14
  Z"
/>
<path fill="#014ac5" d="
  M 1034.40 885.12
  L 1034.40 896.98
  A 0.29 0.29 0.0 0 0 1034.94 897.14
  Q 1043.75 883.32 1059.93 882.95
  Q 1063.19 882.88 1067.67 884.36
  A 0.68 0.67 -79.7 0 1 1068.13 885.03
  L 1067.06 905.82
  A 0.78 0.78 0.0 0 1 1066.09 906.53
  Q 1058.53 904.57 1051.23 906.83
  C 1040.71 910.08 1035.08 919.52 1034.82 930.26
  Q 1034.79 931.65 1034.77 979.09
  A 0.58 0.58 0.0 0 1 1034.19 979.67
  L 1011.02 979.67
  A 0.21 0.20 90.0 0 1 1010.82 979.46
  L 1010.82 885.21
  A 0.61 0.60 90.0 0 1 1011.42 884.60
  L 1033.88 884.60
  A 0.52 0.52 0.0 0 1 1034.40 885.12
  Z"
/>
<rect fill="#014ac5" x="668.84" y="884.57" width="23.72" height="95.08" rx="0.42"/>
<path fill="#014ac5" d="
  M 905.39 884.61
  L 927.97 884.61
  A 0.63 0.63 0.0 0 1 928.60 885.22
  Q 928.69 889.86 928.67 937.62
  C 928.67 940.52 929.14 944.30 930.03 947.45
  C 931.70 953.37 937.08 957.98 943.29 958.76
  C 958.85 960.71 967.65 948.82 967.61 934.50
  Q 967.54 911.87 967.68 885.01
  A 0.40 0.40 0.0 0 1 968.08 884.61
  L 991.18 884.61
  A 0.39 0.39 0.0 0 1 991.57 885.00
  L 991.57 979.12
  A 0.56 0.56 0.0 0 1 991.01 979.68
  L 969.13 979.68
  A 0.69 0.68 90.0 0 1 968.45 978.99
  L 968.45 968.79
  A 0.34 0.33 -27.3 0 0 967.84 968.60
  Q 960.42 978.91 947.33 981.22
  C 931.45 984.02 915.33 977.51 908.54 962.48
  C 905.82 956.46 904.56 948.25 904.54 940.67
  Q 904.45 911.14 904.54 885.45
  A 0.85 0.85 0.0 0 1 905.39 884.61
  Z"
/>
<path fill="#02966c" d="
  M 116.20 928.09
  L 116.20 935.21
  Q 114.69 931.64 116.20 928.09
  Z"
/>
<ellipse fill="#014ac5" cx="0.00" cy="0.00" transform="translate(637.82,966.47) rotate(-76.5)" rx="14.67" ry="14.10"/>
<path fill="#02966c" d="
  M 140.56 959.48
  Q 137.52 959.74 134.71 958.53
  Q 137.78 958.13 140.56 959.48
  Z"
/>
<path fill="#001842" d="
  M 932.90 1030.89
  Q 930.45 1029.90 928.82 1031.01
  C 927.07 1032.21 927.47 1034.02 927.22 1035.98
  Q 927.11 1036.82 928.00 1036.81
  Q 929.83 1036.78 932.30 1036.86
  A 0.50 0.50 0.0 0 1 932.77 1037.45
  Q 932.56 1038.66 932.80 1039.79
  A 0.53 0.53 0.0 0 1 932.28 1040.42
  L 927.67 1040.42
  A 0.55 0.55 0.0 0 0 927.12 1040.97
  L 927.12 1059.12
  A 0.89 0.89 0.0 0 1 926.23 1060.01
  L 923.78 1060.01
  A 0.93 0.92 0.0 0 1 922.85 1059.09
  L 922.85 1041.07
  A 0.66 0.66 0.0 0 0 922.19 1040.41
  L 919.30 1040.41
  A 0.70 0.70 0.0 0 1 918.60 1039.71
  L 918.60 1037.76
  A 0.94 0.93 90.0 0 1 919.53 1036.82
  L 922.34 1036.82
  A 0.58 0.58 0.0 0 0 922.92 1036.31
  Q 923.00 1035.66 923.16 1033.11
  C 923.51 1027.72 928.67 1025.89 933.58 1027.28
  A 0.32 0.32 0.0 0 1 933.81 1027.65
  L 933.20 1030.72
  A 0.23 0.22 -74.0 0 1 932.90 1030.89
  Z"
/>
<rect fill="#001842" x="897.40" y="1027.03" width="3.96" height="32.84" rx="0.52"/>
<rect fill="#001842" x="-1.98" y="-16.41" transform="translate(626.98,1043.63) rotate(0.2)" width="3.96" height="32.82" rx="0.70"/>
<circle fill="#001842" cx="816.20" cy="1030.01" r="2.69"/>
<circle fill="#001842" cx="911.56" cy="1030.02" r="2.77"/>
<path fill="#001842" d="
  M 493.39 1043.90
  Q 493.35 1047.56 495.03 1050.45
  C 499.44 1058.09 509.07 1058.65 514.72 1052.05
  A 0.79 0.79 0.0 0 1 515.76 1051.90
  L 518.12 1053.47
  A 0.65 0.64 38.2 0 1 518.24 1054.44
  Q 510.96 1062.63 500.72 1059.86
  C 492.95 1057.75 489.07 1051.67 489.15 1043.85
  C 489.23 1036.03 493.25 1030.03 501.06 1028.09
  Q 511.35 1025.54 518.46 1033.88
  A 0.65 0.64 -36.9 0 1 518.32 1034.85
  L 515.93 1036.37
  A 0.79 0.79 0.0 0 1 514.89 1036.20
  C 509.38 1029.48 499.74 1029.83 495.16 1037.37
  Q 493.43 1040.23 493.39 1043.90
  Z"
/>
<circle fill="#001842" cx="638.97" cy="1030.01" r="2.66"/>
<path fill="#001842" d="
  M 783.81 1053.54
  L 786.47 1051.85
  A 0.23 0.23 0.0 0 1 786.77 1051.89
  Q 791.05 1056.41 796.24 1056.54
  Q 799.80 1056.64 801.84 1054.76
  C 804.83 1051.99 803.62 1048.13 799.84 1046.94
  C 793.12 1044.81 785.52 1043.68 785.21 1036.71
  C 784.95 1031.04 789.17 1028.19 794.38 1027.63
  Q 802.27 1026.77 806.73 1032.78
  A 0.28 0.28 0.0 0 1 806.69 1033.16
  L 804.37 1035.21
  A 0.24 0.23 47.6 0 1 804.04 1035.19
  Q 799.61 1030.35 794.02 1031.54
  C 790.84 1032.22 788.38 1034.75 790.12 1038.08
  Q 791.18 1040.10 794.61 1040.92
  C 800.65 1042.37 808.62 1043.73 807.83 1052.08
  C 807.20 1058.79 799.70 1061.26 793.72 1060.39
  Q 787.46 1059.47 783.69 1054.13
  A 0.42 0.41 56.7 0 1 783.81 1053.54
  Z"
/>
<ellipse fill="#001842" cx="0.00" cy="0.00" transform="translate(939.65,1030.02) rotate(-177.5)" rx="2.77" ry="2.61"/>
<path fill="#001842" d="
  M 994.04 1039.82
  A 0.23 0.22 23.7 0 0 994.43 1039.67
  L 994.43 1028.07
  A 0.65 0.65 0.0 0 1 995.08 1027.42
  L 997.78 1027.42
  A 0.58 0.58 0.0 0 1 998.36 1028.00
  L 998.36 1059.33
  A 0.70 0.70 0.0 0 1 997.66 1060.03
  L 994.93 1060.03
  A 0.56 0.56 0.0 0 1 994.37 1059.47
  L 994.37 1057.60
  A 0.36 0.35 68.0 0 0 993.77 1057.34
  C 988.50 1062.55 980.90 1061.22 977.10 1055.16
  C 973.81 1049.91 974.97 1041.51 980.34 1037.98
  C 984.71 1035.10 990.40 1035.91 994.04 1039.82
  Z"
/>
<rect fill="#001842" x="256.91" y="1027.83" width="4.46" height="32.06" rx="0.57"/>
<path fill="#001842" d="
  M 273.98 1039.67
  Q 274.20 1039.53 275.00 1038.66
  C 276.80 1036.68 280.16 1036.14 282.77 1036.43
  C 289.06 1037.13 289.99 1041.51 289.98 1047.44
  Q 289.97 1052.31 290.08 1059.34
  A 0.76 0.76 0.0 0 1 289.32 1060.11
  L 286.45 1060.11
  A 0.65 0.64 -90.0 0 1 285.81 1059.46
  Q 285.87 1053.34 285.84 1046.76
  C 285.82 1042.81 284.18 1040.04 280.09 1040.14
  C 275.19 1040.26 273.32 1043.74 273.38 1048.54
  Q 273.44 1053.26 273.40 1059.38
  A 0.65 0.65 0.0 0 1 272.75 1060.03
  L 269.93 1060.03
  A 0.63 0.63 0.0 0 1 269.30 1059.40
  L 269.30 1037.54
  A 0.72 0.72 0.0 0 1 270.02 1036.82
  L 272.95 1036.82
  A 0.64 0.64 0.0 0 1 273.56 1037.67
  Q 273.25 1038.58 273.34 1039.37
  A 0.42 0.41 69.9 0 0 273.98 1039.67
  Z"
/>
<path fill="#001842" d="
  M 297.88 1054.04
  A 0.50 0.50 0.0 0 1 298.46 1054.07
  C 301.26 1056.39 307.04 1058.49 309.56 1055.25
  C 311.03 1053.37 309.24 1051.09 307.32 1050.68
  C 303.11 1049.80 298.76 1049.28 296.86 1045.49
  A 2.79 2.72 29.5 0 1 296.57 1044.50
  Q 296.10 1039.16 300.36 1037.38
  Q 307.42 1034.43 313.40 1039.44
  A 0.94 0.94 0.0 0 1 313.30 1040.95
  L 311.42 1042.14
  A 0.73 0.73 0.0 0 1 310.48 1042.00
  C 308.21 1039.38 303.50 1039.00 301.00 1041.46
  A 1.29 1.27 70.3 0 0 300.63 1042.26
  Q 300.43 1044.57 302.68 1045.40
  C 305.51 1046.45 310.03 1046.82 312.43 1048.92
  Q 315.25 1051.39 313.99 1055.19
  Q 312.56 1059.52 307.26 1060.29
  Q 300.20 1061.31 295.39 1056.50
  A 0.61 0.61 0.0 0 1 295.49 1055.55
  L 297.88 1054.04
  Z"
/>
<path fill="#001842" d="
  M 387.47 1048.48
  Q 387.38 1054.13 387.41 1059.35
  A 0.67 0.66 -90.0 0 1 386.75 1060.02
  L 383.87 1060.02
  A 0.50 0.50 0.0 0 1 383.37 1059.52
  L 383.37 1057.26
  A 0.33 0.32 -24.3 0 0 382.80 1057.05
  Q 379.67 1060.54 375.20 1060.50
  C 368.29 1060.45 364.04 1055.01 364.07 1048.39
  C 364.09 1041.76 368.38 1036.36 375.29 1036.35
  Q 379.76 1036.35 382.86 1039.87
  A 0.33 0.32 24.7 0 0 383.44 1039.66
  L 383.45 1037.40
  A 0.50 0.50 0.0 0 1 383.96 1036.90
  L 386.84 1036.93
  A 0.67 0.66 -89.6 0 1 387.49 1037.60
  Q 387.42 1042.82 387.47 1048.48
  Z"
/>
<path fill="#001842" d="
  M 425.41 1048.43
  Q 425.44 1052.57 427.60 1054.42
  Q 433.67 1059.63 439.69 1053.28
  A 0.58 0.57 38.2 0 1 440.43 1053.20
  L 442.62 1054.66
  A 0.63 0.63 0.0 0 1 442.77 1055.58
  C 435.75 1064.51 421.31 1060.73 421.23 1048.45
  C 421.15 1036.18 435.54 1032.21 442.67 1041.04
  A 0.63 0.63 0.0 0 1 442.53 1041.96
  L 440.36 1043.45
  A 0.58 0.57 -39.0 0 1 439.62 1043.38
  Q 433.52 1037.11 427.52 1042.40
  Q 425.39 1044.28 425.41 1048.43
  Z"
/>
<path fill="#001842" d="
  M 452.03 1049.64
  A 0.48 0.47 87.5 0 0 451.56 1050.16
  C 452.17 1057.42 461.24 1058.55 465.81 1054.04
  A 0.59 0.58 -47.7 0 1 466.57 1053.99
  L 468.61 1055.61
  A 0.57 0.57 0.0 0 1 468.67 1056.45
  C 464.10 1061.26 456.76 1061.98 451.58 1058.04
  C 445.46 1053.38 445.82 1042.08 452.90 1037.94
  C 456.76 1035.67 462.20 1035.73 465.81 1038.47
  Q 470.56 1042.09 470.05 1049.14
  A 0.43 0.43 0.0 0 1 469.62 1049.55
  L 452.03 1049.64
  Z"
/>
<path fill="#001842" d="
  M 547.53 1048.37
  A 12.14 12.14 0.0 0 1 535.39 1060.51
  A 12.14 12.14 0.0 0 1 523.25 1048.37
  A 12.14 12.14 0.0 0 1 535.39 1036.23
  A 12.14 12.14 0.0 0 1 547.53 1048.37
  Z"
/>
<path fill="#001842" d="
  M 557.51 1039.47
  A 0.40 0.40 0.0 0 0 558.19 1039.55
  C 561.65 1034.91 568.75 1035.31 571.72 1039.94
  A 0.46 0.45 -41.3 0 0 572.45 1039.98
  Q 576.91 1034.78 583.16 1036.94
  Q 587.48 1038.43 587.87 1043.75
  Q 588.01 1045.56 587.95 1059.15
  A 0.72 0.72 0.0 0 1 587.23 1059.87
  L 584.58 1059.87
  A 0.65 0.65 0.0 0 1 583.92 1059.21
  L 583.94 1044.13
  A 2.15 2.13 -58.0 0 0 583.73 1043.21
  Q 581.98 1039.48 577.81 1040.21
  Q 573.18 1041.03 572.79 1046.51
  Q 572.68 1048.11 572.82 1059.24
  A 0.55 0.54 -89.9 0 1 572.29 1059.78
  L 569.35 1059.78
  A 0.60 0.59 -89.5 0 1 568.76 1059.17
  Q 568.96 1051.74 568.81 1045.74
  Q 568.67 1040.01 563.24 1040.10
  C 558.94 1040.16 557.53 1043.97 557.53 1047.96
  Q 557.52 1054.78 557.50 1059.30
  A 0.51 0.50 0.1 0 1 557.00 1059.79
  L 553.96 1059.79
  A 0.40 0.40 0.0 0 1 553.57 1059.39
  L 553.59 1037.35
  A 0.56 0.55 -89.9 0 1 554.14 1036.79
  L 557.00 1036.80
  A 0.63 0.63 0.0 0 1 557.61 1037.54
  Q 557.33 1039.05 557.51 1039.47
  Z"
/>
<path fill="#001842" d="
  M 600.13 1039.68
  Q 606.01 1034.11 613.05 1037.57
  C 622.70 1042.31 620.29 1059.43 608.77 1060.41
  Q 603.31 1060.88 600.15 1056.73
  A 0.30 0.30 0.0 0 0 599.61 1056.91
  L 599.61 1068.12
  A 0.71 0.71 0.0 0 1 598.90 1068.83
  L 596.14 1068.83
  A 0.74 0.73 -0.0 0 1 595.40 1068.10
  L 595.40 1037.61
  A 0.83 0.83 0.0 0 1 596.23 1036.78
  L 599.07 1036.78
  A 0.71 0.70 5.6 0 1 599.77 1037.62
  L 599.44 1039.29
  A 0.42 0.41 74.1 0 0 600.13 1039.68
  Z"
/>
<path fill="#001842" d="
  M 647.10 1048.45
  C 647.08 1041.83 651.33 1036.38 658.25 1036.32
  Q 662.72 1036.29 665.85 1039.78
  A 0.33 0.32 24.3 0 0 666.43 1039.57
  L 666.43 1037.31
  A 0.50 0.50 0.0 0 1 666.93 1036.81
  L 669.81 1036.81
  A 0.67 0.66 90.0 0 1 670.47 1037.48
  Q 670.44 1042.71 670.53 1048.37
  Q 670.48 1054.02 670.55 1059.25
  A 0.67 0.66 89.6 0 1 669.90 1059.93
  L 667.01 1059.95
  A 0.50 0.50 0.0 0 1 666.51 1059.45
  L 666.49 1057.19
  A 0.33 0.32 -24.7 0 0 665.92 1056.98
  Q 662.81 1060.50 658.34 1060.50
  C 651.42 1060.50 647.13 1055.08 647.10 1048.45
  Z"
/>
<path fill="#001842" d="
  M 708.42 1048.56
  C 708.46 1051.07 708.74 1051.98 710.32 1054.07
  C 713.29 1057.98 719.48 1057.49 722.28 1053.63
  A 0.90 0.90 0.0 0 1 723.70 1053.58
  Q 724.32 1054.32 725.30 1054.75
  A 0.76 0.76 0.0 0 1 725.59 1055.92
  Q 722.57 1059.66 718.47 1060.27
  C 710.71 1061.43 704.45 1056.80 704.32 1048.62
  C 704.19 1040.44 710.29 1035.62 718.08 1036.52
  Q 722.20 1037.00 725.34 1040.64
  A 0.76 0.76 0.0 0 1 725.09 1041.82
  Q 724.12 1042.28 723.53 1043.04
  A 0.90 0.90 0.0 0 1 722.11 1043.03
  C 719.18 1039.27 712.98 1038.98 710.14 1042.99
  C 708.63 1045.12 708.38 1046.04 708.42 1048.56
  Z"
/>
<path fill="#001842" d="
  M 734.36 1050.06
  C 734.93 1057.30 743.95 1058.47 748.52 1054.00
  A 0.59 0.57 -47.4 0 1 749.28 1053.96
  L 751.30 1055.58
  A 0.57 0.57 0.0 0 1 751.36 1056.42
  C 746.78 1061.18 739.47 1061.86 734.34 1057.91
  C 728.27 1053.24 728.68 1041.99 735.75 1037.91
  C 739.61 1035.67 745.02 1035.75 748.60 1038.50
  Q 753.31 1042.13 752.77 1049.15
  A 0.43 0.43 0.0 0 1 752.34 1049.55
  L 734.83 1049.55
  A 0.47 0.47 0.0 0 0 734.36 1050.06
  Z"
/>
<path fill="#001842" d="
  M 830.49 1039.57
  C 833.97 1034.89 841.13 1035.29 844.13 1039.95
  A 0.46 0.45 -41.4 0 0 844.86 1039.99
  Q 849.35 1034.74 855.65 1036.91
  Q 860.01 1038.41 860.41 1043.77
  Q 860.55 1045.60 860.51 1059.29
  A 0.73 0.73 0.0 0 1 859.78 1060.02
  L 857.11 1060.02
  A 0.66 0.66 0.0 0 1 856.45 1059.36
  L 856.45 1044.16
  A 2.17 2.15 -58.1 0 0 856.24 1043.23
  Q 854.47 1039.47 850.26 1040.22
  Q 845.60 1041.05 845.21 1046.57
  Q 845.10 1048.18 845.26 1059.40
  A 0.55 0.54 90.0 0 1 844.72 1059.95
  L 841.76 1059.95
  A 0.60 0.59 -89.5 0 1 841.17 1059.34
  Q 841.36 1051.85 841.20 1045.80
  Q 841.05 1040.03 835.58 1040.12
  C 831.24 1040.19 829.83 1044.03 829.83 1048.05
  Q 829.83 1054.93 829.82 1059.48
  A 0.51 0.50 -0.0 0 1 829.31 1059.98
  L 826.25 1059.98
  A 0.40 0.40 0.0 0 1 825.85 1059.58
  L 825.85 1037.36
  A 0.56 0.55 90.0 0 1 826.40 1036.80
  L 829.28 1036.80
  A 0.63 0.63 0.0 0 1 829.90 1037.55
  Q 829.62 1039.07 829.80 1039.49
  A 0.40 0.40 0.0 0 0 830.49 1039.57
  Z"
/>
<path fill="#001842" d="
  M 871.81 1039.31
  A 0.42 0.41 74.0 0 0 872.50 1039.69
  Q 878.36 1034.11 885.41 1037.55
  C 895.07 1042.26 892.70 1059.38 881.19 1060.39
  Q 875.74 1060.88 872.57 1056.74
  A 0.30 0.30 0.0 0 0 872.03 1056.92
  L 872.06 1068.12
  A 0.71 0.71 0.0 0 1 871.35 1068.84
  L 868.59 1068.84
  A 0.74 0.73 -0.2 0 1 867.85 1068.11
  L 867.77 1037.64
  A 0.83 0.83 0.0 0 1 868.59 1036.80
  L 871.43 1036.80
  A 0.71 0.70 5.5 0 1 872.14 1037.64
  L 871.81 1039.31
  Z"
/>
<path fill="#001842" d="
  M 952.70 1049.74
  A 0.47 0.47 0.0 0 0 952.24 1050.26
  C 952.96 1057.51 962.04 1058.50 966.53 1053.92
  A 0.59 0.58 -48.6 0 1 967.29 1053.86
  L 969.35 1055.45
  A 0.57 0.57 0.0 0 1 969.43 1056.29
  C 964.93 1061.16 957.61 1061.99 952.38 1058.14
  C 946.20 1053.58 946.37 1042.28 953.38 1038.04
  C 957.21 1035.72 962.64 1035.68 966.28 1038.37
  Q 971.09 1041.91 970.69 1048.97
  A 0.43 0.43 0.0 0 1 970.27 1049.38
  L 952.70 1049.74
  Z"
/>
<path fill="#001842" d="
  M 352.46 1040.16
  A 0.29 0.29 0.0 0 0 353.01 1040.24
  Q 355.19 1035.92 360.53 1036.56
  A 0.68 0.67 9.1 0 1 361.11 1037.36
  L 360.62 1039.84
  A 0.68 0.68 0.0 0 1 359.89 1040.38
  Q 354.73 1039.84 352.41 1045.47
  A 1.49 1.34 58.7 0 0 352.31 1046.00
  L 352.31 1059.28
  A 0.77 0.77 0.0 0 1 351.54 1060.05
  L 348.70 1060.05
  A 0.80 0.80 0.0 0 1 347.90 1059.25
  L 347.90 1037.89
  A 1.00 1.00 0.0 0 1 348.90 1036.89
  L 351.80 1036.89
  A 0.72 0.72 0.0 0 1 352.49 1037.82
  Q 352.22 1038.71 352.46 1040.16
  Z"
/>
<path fill="#001842" d="
  M 398.89 1039.37
  A 0.41 0.41 0.0 0 0 399.53 1039.67
  Q 399.75 1039.53 400.55 1038.66
  C 402.34 1036.69 405.69 1036.16 408.29 1036.45
  C 414.55 1037.16 415.47 1041.52 415.45 1047.43
  Q 415.44 1052.28 415.54 1059.28
  A 0.76 0.76 0.0 0 1 414.78 1060.04
  L 411.92 1060.04
  A 0.65 0.64 -89.9 0 1 411.28 1059.39
  Q 411.35 1053.30 411.33 1046.74
  C 411.32 1042.81 409.69 1040.05 405.62 1040.14
  C 400.74 1040.26 398.87 1043.72 398.92 1048.50
  Q 398.97 1053.20 398.93 1059.29
  A 0.65 0.65 0.0 0 1 398.28 1059.94
  L 395.47 1059.94
  A 0.63 0.63 0.0 0 1 394.84 1059.31
  L 394.87 1037.54
  A 0.72 0.72 0.0 0 1 395.59 1036.82
  L 398.51 1036.83
  A 0.64 0.64 0.0 0 1 399.12 1037.67
  Q 398.81 1038.58 398.89 1039.37
  Z"
/>
<path fill="#001842" d="
  M 681.82 1039.30
  A 0.42 0.41 70.1 0 0 682.45 1039.60
  Q 682.67 1039.46 683.48 1038.59
  C 685.28 1036.62 688.63 1036.09 691.24 1036.38
  C 697.51 1037.10 698.43 1041.47 698.41 1047.39
  Q 698.39 1052.25 698.48 1059.27
  A 0.76 0.76 0.0 0 1 697.72 1060.03
  L 694.85 1060.03
  A 0.65 0.64 -89.9 0 1 694.22 1059.38
  Q 694.29 1053.27 694.28 1046.70
  C 694.27 1042.76 692.64 1039.99 688.55 1040.08
  C 683.66 1040.19 681.79 1043.66 681.83 1048.45
  Q 681.88 1053.16 681.83 1059.27
  A 0.65 0.65 0.0 0 1 681.18 1059.92
  L 678.36 1059.91
  A 0.63 0.63 0.0 0 1 677.74 1059.28
  L 677.79 1037.46
  A 0.72 0.72 0.0 0 1 678.51 1036.74
  L 681.43 1036.75
  A 0.64 0.64 0.0 0 1 682.04 1037.60
  Q 681.73 1038.51 681.82 1039.30
  Z"
/>
<path fill="#001842" d="
  M 336.65 1057.54
  A 0.42 0.41 70.0 0 0 336.01 1057.24
  Q 335.79 1057.38 334.99 1058.25
  C 333.19 1060.23 329.83 1060.76 327.22 1060.47
  C 320.94 1059.76 320.02 1055.39 320.04 1049.46
  Q 320.05 1044.60 319.95 1037.58
  A 0.76 0.76 0.0 0 1 320.71 1036.81
  L 323.58 1036.81
  A 0.65 0.64 -89.9 0 1 324.22 1037.46
  Q 324.15 1043.58 324.17 1050.15
  C 324.19 1054.09 325.82 1056.86 329.91 1056.77
  C 334.80 1056.65 336.67 1053.18 336.62 1048.39
  Q 336.56 1043.67 336.61 1037.56
  A 0.65 0.65 0.0 0 1 337.26 1036.91
  L 340.08 1036.91
  A 0.63 0.63 0.0 0 1 340.70 1037.54
  L 340.68 1059.38
  A 0.72 0.72 0.0 0 1 339.96 1060.09
  L 337.03 1060.09
  A 0.64 0.64 0.0 0 1 336.42 1059.24
  Q 336.73 1058.33 336.65 1057.54
  Z"
/>
<rect fill="#001842" x="-2.09" y="-11.57" transform="translate(638.91,1048.41) rotate(0.2)" width="4.18" height="23.14" rx="0.53"/>
<rect fill="#001842" x="-2.10" y="-11.64" transform="translate(816.33,1048.36) rotate(0.2)" width="4.20" height="23.28" rx="0.65"/>
<rect fill="#001842" x="-2.05" y="-11.57" transform="translate(911.48,1048.37) rotate(0.1)" width="4.10" height="23.14" rx="0.45"/>
<rect fill="#001842" x="-2.01" y="-11.64" transform="translate(939.64,1048.38) rotate(-0.1)" width="4.02" height="23.28" rx="0.60"/>
<rect fill="#001842" x="98.40" y="1043.50" width="131.06" height="3.22" rx="0.67"/>
<rect fill="#014ac5" x="1030.68" y="1043.44" width="130.88" height="3.32" rx="0.56"/>
<circle fill="#001842" cx="760.71" cy="1057.55" r="2.99"/>
<circle fill="#001842" cx="1008.34" cy="1057.57" r="2.90"/>
</g>
<path fill="#fdfcfd" d="
  M 608.25 630.28
  Q 643.15 630.27 650.02 630.33
  A 0.47 0.47 0.0 0 1 650.49 630.80
  L 650.49 723.73
  A 0.60 0.60 0.0 0 1 649.89 724.33
  L 631.40 724.33
  A 0.47 0.47 0.0 0 1 630.93 723.86
  L 630.93 651.18
  A 0.45 0.44 90.0 0 0 630.49 650.73
  Q 610.59 650.81 608.26 650.81
  Q 605.92 650.81 586.03 650.74
  A 0.45 0.44 90.0 0 0 585.58 651.19
  L 585.62 723.87
  A 0.47 0.47 0.0 0 1 585.15 724.34
  L 566.66 724.35
  A 0.60 0.60 0.0 0 1 566.06 723.75
  L 566.01 630.82
  A 0.47 0.47 0.0 0 1 566.48 630.35
  Q 573.35 630.29 608.25 630.28
  Z"
/>
<g>
<path fill="#fdfcfd" d="
  M 463.82 956.67
  Q 460.90 956.91 458.44 958.57
  A 27.47 25.82 87.6 0 1 449.97 958.97
  A 27.46 25.83 89.6 0 1 438.69 954.52
  A 27.47 25.80 89.2 0 1 428.43 939.98
  A 27.49 25.84 89.5 0 1 428.64 922.68
  A 27.43 25.81 89.1 0 1 445.44 905.46
  A 27.45 25.80 89.2 0 1 469.45 910.58
  A 27.45 25.80 89.0 0 1 477.11 941.62
  A 27.48 25.83 89.1 0 1 463.82 956.67
  Z"
/>
<path fill="#02966c" d="
  M 463.82 956.67
  A 27.19 25.54 89.5 0 1 458.44 958.57
  Q 460.90 956.91 463.82 956.67
  Z"
/>
</g>
<ellipse fill="#fdfcfd" cx="0.00" cy="0.00" transform="translate(239.47,931.96) rotate(-89.9)" rx="27.59" ry="26.20"/>
<g>
<path fill="#fdfcfd" d="
  M 567.60 959.35
  L 560.00 958.46
  C 543.46 953.86 536.70 936.50 542.29 921.18
  C 545.92 911.21 555.25 904.21 565.97 904.51
  Q 582.80 904.98 589.57 919.57
  Q 594.50 930.17 590.53 941.74
  Q 585.69 955.90 570.59 959.00
  A 1.47 1.44 -45.5 0 1 570.03 959.01
  Q 568.72 958.79 567.60 959.35
  Z"
/>
<path fill="#02966c" d="
  M 567.60 959.35
  Q 563.61 960.47 560.00 958.46
  L 567.60 959.35
  Z"
/>
</g>
<path fill="#fdfcfd" d="
  M 1096.37 922.35
  A 0.49 0.49 0.0 0 1 1095.90 921.74
  C 1098.96 910.11 1108.31 902.98 1120.21 903.36
  Q 1125.82 903.54 1130.76 906.25
  C 1137.21 909.79 1140.13 914.50 1141.54 921.60
  A 0.63 0.63 0.0 0 1 1140.92 922.35
  L 1096.37 922.35
  Z"
/>
<ellipse fill="#fdfcfd" cx="0.00" cy="0.00" transform="translate(987.04,1048.36) rotate(-94.6)" rx="8.39" ry="7.66"/>
<ellipse fill="#fdfcfd" cx="0.00" cy="0.00" transform="translate(375.87,1048.32) rotate(-90.2)" rx="8.38" ry="7.70"/>
<path fill="#fdfcfd" d="
  M 451.97 1046.39
  A 0.14 0.14 0.0 0 1 451.83 1046.25
  L 451.83 1046.16
  A 7.00 6.29 -0.0 0 1 458.83 1039.87
  L 458.97 1039.87
  A 7.00 6.29 0.0 0 1 465.97 1046.16
  L 465.97 1046.25
  A 0.14 0.14 0.0 0 1 465.83 1046.39
  L 451.97 1046.39
  Z"
/>
<ellipse fill="#fdfcfd" cx="0.00" cy="0.00" transform="translate(535.38,1048.29) rotate(-91.0)" rx="8.37" ry="7.85"/>
<ellipse fill="#fdfcfd" cx="0.00" cy="0.00" transform="translate(607.04,1048.30) rotate(-89.1)" rx="8.42" ry="7.73"/>
<ellipse fill="#fdfcfd" cx="0.00" cy="0.00" transform="translate(658.94,1048.27) rotate(-90.8)" rx="8.35" ry="7.78"/>
<path fill="#fdfcfd" d="
  M 734.67 1046.50
  A 0.15 0.15 0.0 0 1 734.52 1046.35
  L 734.52 1046.24
  A 6.93 6.40 -0.4 0 1 741.41 1039.79
  L 741.59 1039.79
  A 6.93 6.40 -0.4 0 1 748.56 1046.14
  L 748.56 1046.25
  A 0.15 0.15 0.0 0 1 748.41 1046.40
  L 734.67 1046.50
  Z"
/>
<ellipse fill="#fdfcfd" cx="0.00" cy="0.00" transform="translate(879.44,1048.33) rotate(-91.2)" rx="8.43" ry="7.72"/>
<path fill="#fdfcfd" d="
  M 952.62 1046.43
  A 0.10 0.10 0.0 0 1 952.52 1046.33
  L 952.52 1046.25
  A 6.87 6.36 -0.3 0 1 959.35 1039.85
  L 959.51 1039.85
  A 6.87 6.36 -0.3 0 1 966.42 1046.17
  L 966.42 1046.25
  A 0.10 0.10 0.0 0 1 966.32 1046.35
  L 952.62 1046.43
  Z"
/>
<path fill="#014ac5" d="
  M 320.35 1040.01
  Q 320.56 1040.01 320.56 1043.37
  Q 320.55 1046.74 320.34 1046.74
  Q 320.13 1046.74 320.13 1043.37
  Q 320.14 1040.01 320.35 1040.01
  Z"
/>
</svg>
